<?xml version="1.0" encoding="utf-8"?>
<!-- Generator: Adobe Illustrator 25.0.0, SVG Export Plug-In . SVG Version: 6.00 Build 0)  -->
<svg version="1.1" id="Layer_1" xmlns="http://www.w3.org/2000/svg" xmlns:xlink="http://www.w3.org/1999/xlink" x="0px" y="0px"
	 viewBox="0 0 707.2 260.4" style="enable-background:new 0 0 707.2 260.4;" xml:space="preserve">
<style type="text/css">
	.st0{fill:#020C22;}
</style>
<g>
	<path class="st0" d="M0.9,240.6c0.4,0.4,0.6,0.7,0.6,1s0.2,0.7,0.4,1.2c-0.4-0.1-0.7-0.4-0.7-0.8C1.2,241.4,1.1,241,0.9,240.6z
		 M75.9,158.2c-0.6,0.4-1.3,0.8-1.8,1.1c-0.6,0.3-1.2,0.7-1.9,1.1c-0.4,0.4-0.9,0.6-1.6,0.8c-0.7,0.2-1.2,0.5-1.5,1
		c-1.9,0.4-3.6,1-5.1,2.1c-1.5,1-3,1.6-4.5,1.8c0.4-0.2,0.7-0.4,1-0.6c0.2-0.2,0.5-0.3,0.8-0.4c2-1.5,4.3-2.8,6.7-3.8s4.9-2,7.3-3
		c-1.5,0.3-3,0.8-4.5,1.4c-1.5,0.7-3,1.3-4.6,1.9c-0.1-0.3,0-0.4,0.2-0.5s0.3-0.2,0.2-0.5c-0.6,0.1-0.9,0.3-1.1,0.6
		c-0.2,0.3-0.6,0.5-1.3,0.7c-1,0.9-2.2,1.6-3.7,2.1s-2.8,1.2-3.9,2.3c-0.1,0.3,0,0.2,0.4-0.2c0.4-0.4,0.4-0.3,0.3,0.3
		c-1.7,0.7-3,1.7-3.8,2.8c-0.8,0.1-1.4,0.5-1.9,1c-0.4,0.5-0.9,1-1.6,1.4c-0.6,0.7-1.3,1.2-2.1,1.7c-0.8,0.4-1.4,1-1.8,1.8
		c-0.6,0.4-1.6,0.8-2.8,1c-1.2,0.3-2.2,0.8-2.9,1.5c-0.1,0-0.2,0-0.1-0.2s-0.1-0.3-0.4-0.4c-2.4,1.9-5.3,3.4-8.9,4.5
		s-6.6,2.1-9.4,2.9c-0.7,2.3-1.4,4.7-2,7.2s-1.3,4.9-2.1,7l0.2,0c0.3,0,0.4,0.1,0.5,0.3c-0.4,2.4-0.7,4.9-0.9,7.5
		c-0.2,2.6-0.5,5.2-1.1,7.7c-0.3,0.8-0.6,1.7-0.8,2.8c-0.2,1.1-0.6,2.1-1,2.9c0.4,0.9,0.4,1.6-0.1,2c0.1,0.6,0.1,1.2,0,1.8
		s-0.2,1.5-0.3,2.5c-0.4,1.2-0.5,2.5-0.4,3.9s0,2.7-0.4,3.9c0.3,0.7,0.4,1.1,0.3,1.5c0.1,0.7,0.1,1.3,0.1,1.7
		c-0.1,0.3-0.1,0.4,0.1,0.3c0.1-0.1,0.2-0.1,0.2,0.1c0.3,0.7,0.4,1.5,0.3,2.5c0,1,0.1,1.9,0.4,2.7c1.2,4.9,4.4,7.3,9.9,7
		c1.4,0,3.2-0.2,5.2-0.8c2-0.6,3.9-1.1,5.5-1.5c-0.5,0.4-1.1,0.7-1.9,0.9c-0.8,0.2-1.4,0.5-2.1,0.9c1.5,0.3,3.2,0,5-0.8
		c1.9-0.8,3.7-1.6,5.6-2.2c0.2,0.2,0.2,0.4,0,0.3c-0.2,0-0.3,0.1-0.3,0.4c2.5-1.2,4.9-2.3,7.1-3.5c2.2-1.2,4.3-2.5,6.1-4
		c0.2,0.2,0.4,0.3,0.7,0.1c0.2-0.2,0.4-0.3,0.6-0.3c0.5-0.4,1.1-0.8,1.8-1.2c0.7-0.4,1.2-0.9,1.4-1.3c0.7-0.1,1.3-0.5,1.9-1
		c0.6-0.5,1-1,1.4-1.3c1.7-1,3.3-2.2,4.8-3.7c1.5-1.4,2.9-2.9,4.3-4.4c0.6-0.4,1.2-1,1.8-1.7c0.6-0.8,1.2-1.5,2-2.2
		c0.1,0,0.3-0.2,0.6-0.5c0.5-1.1,1.2-2.1,2.1-3.2c0.9-1,1.6-2,2.2-3c-0.5-1.1-0.9-1.7-1.2-1.9c0-0.1,0-0.4,0-0.6s0.2-0.3,0.5-0.1
		c0.1-1.3,0.4-2.3,1.2-2.9c0.8-0.6,1.4-1.4,2-2.2c1.3-0.1,2.2-0.1,2.8,0c0.6,0.1,1.3,0.2,2,0.4c0.1,0,0.2-0.1,0.3-0.3
		c0-0.1-0.1-0.2-0.4-0.1c0.1-0.2,0.6-0.2,1.5,0c-0.3,0.2-0.5,0.3-0.6,0.2c-0.1,0-0.3,0-0.4,0.2c0.6,0.2,1.1,0.2,1.4,0
		c0.3-0.2,0.7-0.2,1.2,0c0.1,0.3,0.1,0.5,0.2,0.6c0.1,0.1,0.1,0.3,0,0.6c0.1,0,0.2-0.1,0.3-0.3c0.1-0.1,0.2-0.1,0.6,0.1
		c0.2,0.3,0.4,0.4,0.5,0.5c0.2,0.1,0.4,0.4,0.6,0.8c-0.7,0.7-1.2,0.6-1.5-0.1c0.1,0.6,0,1-0.3,1.3s-0.6,0.7-0.8,1
		c0.2,0.4,0.6,0.4,1.1,0c-0.2,0.3-0.5,0.7-0.7,1c-0.2,0.3-0.4,0.7-0.6,1.2c-0.3-0.2-0.5-0.4-0.5-0.5c-0.2,0.3-0.4,0.7-0.4,1.1
		s-0.2,1-0.3,1.8c-1,0.9-1.8,2-2.3,3.3s-1.4,2.5-2.5,3.6c-1.9,3.5-4.2,6.7-6.9,9.6c-2.6,2.9-5.3,5.6-8,8.1c-0.1,1.6-1.1,2.7-2.8,3.3
		c0.2-0.3,0.6-0.7,1.3-1.2c0.6-0.5,0.8-1,0.4-1.7c0.1,0.8-0.1,1.3-0.8,1.4c0.2-0.3,0.3-0.5,0.1-0.7c-0.2-0.1-0.2-0.5-0.2-1
		c-0.4,0.2-0.4,0.4-0.1,0.7c-0.6-0.2-1.2,0.2-1.7,1.1c-0.6,0.9-1.1,1.6-1.8,2.1c0.3,0.1,0.4,0.1,0.4,0s0.1-0.1,0.4-0.2
		c-1.4,1.1-2.7,2.3-4,3.6s-2.7,2.5-4.2,3.6c-1.1,0.2-2.1,0.5-2.9,1s-1.8,0.8-2.9,1.2c-0.1,0-0.2,0-0.2-0.2c0-0.1,0-0.3,0.1-0.5
		c-1.4,1-2.9,1.8-4.5,2.5c-1.6,0.7-3.3,1.2-5.1,1.6c0-0.1,0-0.2,0.1-0.3c0.1-0.1,0.1-0.2,0-0.3c-1.2-0.1-2.2,0.2-3.2,0.9
		c-1,0.7-1.9,0.9-2.8,0.8c-0.4,0.1-0.9,0.2-1.4,0.2c-0.5,0.1-1.1,0.1-1.8,0.1c-4.2,0.5-8.2,0-12.1-1.5s-7.3-3.3-10.5-5.6l0.4-0.1
		c-0.8-1-1.6-2-2.4-2.9c-0.9-0.9-1.7-2.1-2.4-3.5c-0.3-0.8-0.7-1.7-1.3-2.7s-0.9-2-0.8-3.2c-0.1-0.4-0.3-0.7-0.6-0.8
		c-0.2-2-0.5-4.3-0.9-7c-0.4-2.7-0.7-5.1-0.7-7.1c-0.5,0.4-0.6,1-0.3,1.8c0.3,0.8,0.3,1.4,0.1,1.9c-0.2-0.2-0.3-0.6-0.3-0.9
		c0-0.4,0-0.8-0.1-1.2l0.2-5c0.1-0.9,0.3-1.8,0.4-2.6c0.1-0.9,0.2-1.8,0.4-2.9l0,0.2c0.6-0.4,0.9-1,0.9-1.8
		c-0.1-0.8-0.1-1.7,0.1-2.7c0.1-1.2,0.2-2.2,0.5-3.2c0.3-1,0.4-2,0.3-3.2c-0.1,0.2-0.1,0.4-0.1,0.7c0.1,0.3,0,0.5-0.1,0.7
		c0.1-0.3,0.1-0.9-0.1-1.7c-0.1-0.8,0.1-1.3,0.6-1.4c-0.4-0.5-0.4-0.9-0.2-1.2c0.1,0,0.2,0,0.1,0.1c-0.1,0.1,0,0.1,0.1,0.1
		c0.2-0.2,0.2-0.3,0-0.2c-0.3,0-0.3-0.1-0.1-0.4c0.1-0.2,0.1-0.4,0.1-0.8c-0.1-0.3,0-0.5,0.3-0.6c-0.4-0.5-0.4-1-0.1-1.5
		s0.6-0.9,0.9-1.2c0.5-4.2,1.3-8.1,2.2-11.6s1.8-7.1,2.5-11c1.1-4.1,2.3-8.2,3.6-12.4c1.3-4.2,2.5-8.4,3.8-12.6c0.4-1.5,1-3,1.6-4.6
		c0.6-1.5,1.2-3,1.7-4.4c0.3-1.6,0.7-3.1,1.1-4.5s0.9-2.8,1.4-4.3c0.4-1.6,1-3.4,1.7-5.4c0.7-1.9,1.3-3.8,1.7-5.6
		c1.2-2.2,2.1-4.7,2.8-7.4c0.7-2.7,1.4-5.3,2.3-7.7c-0.3,0.1-0.6,0-0.9-0.2c-0.3-0.2-0.7-0.3-1.1-0.3c-0.4-0.6-0.8-1.3-1.1-2.1
		s-0.7-1.4-1.1-2.1c-1-0.1-1.5-0.5-1.5-1.2c0-0.7,0.4-1.2,1.2-1.5c0.7-0.1,1.4-0.1,2,0s1.3,0.1,2,0c1.9-0.5,3.1-1.3,3.7-2.4
		c0.5-1.1,0.9-2.5,1.2-4.3c-1.1,0.5-1.7,0.7-1.8,0.5c0-1.6,0.4-3,1.1-4.3c0.7-1.3,2.1-1.9,4.1-1.8l1,0.7c0.6,0.2,1.1,0.2,1.5,0.1
		c0.4-0.1,0.8-0.2,1.1-0.1c0.9,0,1.7,0.2,2.5,0.5c0.8,0.4,1.6,0.7,2.3,1c3.8-2.1,7.7-4.2,11.9-6.3c4.1-2.1,8.4-3.9,12.7-5.4
		c3.9-1.3,8.3-2.9,13.2-4.7c4.9-1.9,9.7-2.9,14.4-3c1,0.1,1.9,0.4,2.5,0.7c0.6,0.4,1.4,0.9,2.2,1.4c0.1,0.3-0.2,0.6-0.9,1
		c0.3,0.2,0.4,0.5,0.2,0.8c-0.2,0.3-0.4,0.6-0.6,0.8c0.1,0.3,0.1,0.4,0.3,0.4c0.1,0,0.2,0.1,0.3,0.4c-0.2,0.3-0.5,0.5-0.8,0.6
		s-0.3,0.3-0.1,0.7c-1.3,0.1-2.2,0.4-2.9,1.1c-0.7,0.6-1.3,1.3-1.9,1.9l-0.2,0c0.3-0.1,0.4-0.2,0.3-0.5c0.2-0.3,0.1-0.4-0.3-0.4
		c0-0.1-0.2,0-0.6,0.5c-2,0.1-3.4,0.6-4.4,1.4c-0.9,0.9-2.1,1.5-3.6,1.9c-0.1,0-0.2,0.1-0.1,0.2c0.1,0.1,0.1,0.2-0.1,0.2
		c-0.6,0.1-0.9,0.3-1.1,0.7c-0.1,0.4-0.6,0.6-1.3,0.6c-1.7,1.5-3.7,2.7-6,3.8c-2.2,1.1-4.4,2.3-6.4,3.8c-3,1.1-6.2,2.5-9.7,4.3
		c-3.6,1.8-6.7,3.5-9.4,5.1c-0.8,0.4-1.9,0.9-3.3,1.6c-1.4,0.6-2.4,1.2-3,1.7c-0.7,1.1-1.2,2.4-1.7,3.8c-0.5,1.4-0.9,3-1.3,4.6
		c-0.3,0.6-0.6,1.2-1,1.7c-0.3,0.5-0.6,1.1-0.7,1.9c0,0.1,0,0.3-0.1,0.4l0,0.2c-0.9,3.5-1.9,7-2.8,10.5c-0.9,3.5-2.3,6.8-4.1,9.6
		c0.1,0.6,0,1-0.4,1.4c-0.4,0.4-0.7,0.7-0.9,1c-1,1.8-1.6,3.5-2,5.2c-0.3,1.7-0.8,3.5-1.3,5.5c-0.3,0-0.4,0.2-0.4,0.4
		c0,0.2-0.1,0.4-0.3,0.6l-1.7,4.8c0.4-0.2,0.7-0.5,0.9-0.9c0.2-0.4,0.5-0.8,0.9-1.1l0.2,0l-0.5,0.7c-0.2,0.3-0.5,0.7-0.8,1.1
		c-0.3,0.4-0.5,0.8-0.8,1.1c-0.6,2.4-1.3,4.5-2.1,6.4c-0.8,1.9-1.4,4-1.8,6.6c8.4-4.8,17.5-9.4,27.2-13.8
		c9.7-4.4,19.2-7.8,28.7-10.2c1,0.1,2.1,0.1,3.2-0.1c1.1-0.2,2.1,0,3.1,0.7c-0.2,1.9-0.9,3.5-2.2,4.7c-1.2,1.2-2.5,2.3-3.9,3.3
		c-0.3,0.2-0.4,0.2-0.4,0.2c0-0.1-0.1-0.1-0.2-0.1c0.2,0.2,0.2,0.4,0,0.3c-0.2,0-0.3,0.1-0.3,0.4c-0.7,0.3-1.3,0.5-2,0.8
		s-1.3,0.6-2,1l0-0.2l0.2-0.2l0-0.2l-0.4,0.1c-0.1,0-0.2,0.1-0.2,0.2l0.2,0.2L75.9,158.2z M1.5,231.9c0.1,0.7,0.1,1.3,0.1,1.7
		l0.3,1.9c0.1-0.3,0.2-0.6,0.2-1s0.1-0.8,0-1.4c0-0.1-0.1-0.2-0.1-0.2c-0.1,0-0.1,0-0.1-0.2l-0.1-0.4C1.7,232,1.6,231.9,1.5,231.9z
		 M1.9,235.5c0.1-0.3,0.2-0.6,0.2-1s0.1-0.8,0-1.4c0-0.1-0.1-0.2-0.1-0.2c-0.1,0-0.1,0-0.1-0.2l-0.1-0.4c-0.1-0.3-0.1-0.4-0.3-0.4
		c0.1,0.7,0.1,1.3,0.1,1.7L1.9,235.5z M2.4,236.7c0.1,0.3,0.1,0.6,0.1,1.1c0,0.4,0,0.8,0.1,1.1c0,0.1,0.1,0.2,0.2,0.2
		c-0.2-0.3-0.2-0.6-0.1-1c0.1-0.4,0.1-0.7-0.1-1l0-0.2C2.6,236.7,2.5,236.7,2.4,236.7z M2.4,236.7c0.1,0.3,0.1,0.6,0.1,1.1
		c0,0.4,0,0.8,0.1,1.1c0,0.1,0.1,0.2,0.2,0.2c-0.2-0.3-0.2-0.6-0.1-1c0.1-0.4,0.1-0.7-0.1-1l0-0.2C2.6,236.7,2.5,236.7,2.4,236.7z
		 M0.3,225.4c0-0.1,0-0.2,0.1-0.3s0.1-0.2,0.1-0.3c0.1-0.4,0.1-0.9,0.2-1.3c0.1-0.4,0.1-1,0.2-1.5c-0.1-0.3-0.1-0.6,0-0.9
		s0-0.6-0.1-0.9l-0.2-0.2c0.1,0.3,0,0.6-0.1,0.9s-0.2,0.6-0.3,0.9c0.1,0.3,0.1,0.5,0,0.6c0,0.1,0,0.4,0,0.6c0,0.1,0,0.2-0.1,0.2
		c-0.1,0-0.1,0.1-0.1,0.2l0.2,1.2l0,0.2L0.3,225.4z M0.5,220.1c0.1,0.3,0,0.6-0.1,0.9s-0.2,0.6-0.3,0.9c0.1,0.3,0.1,0.5,0,0.6
		c0,0.1,0,0.4,0,0.6c0,0.1,0,0.2-0.1,0.2c-0.1,0-0.1,0.1-0.1,0.2l0.2,1.2l0,0.2l0.1,0.4c0-0.1,0-0.2,0.1-0.3s0.1-0.2,0.1-0.3
		c0.1-0.4,0.1-0.9,0.2-1.3c0.1-0.4,0.1-1,0.2-1.5c-0.1-0.3-0.1-0.6,0-0.9s0-0.6-0.1-0.9L0.5,220.1z M1.6,228.7
		c0.3,0,0.4-0.3,0.3-0.7l-0.2-0.2l0-0.2l-0.2-0.2l0.1,0.4l0,0.2c0,0.1,0,0.2-0.2,0.2l0,0.2L1.6,228.7z M1.6,228.7
		c0.3,0,0.4-0.3,0.3-0.7l-0.2-0.2l0-0.2l-0.2-0.2l0.1,0.4l0,0.2c0,0.1,0,0.2-0.2,0.2l0,0.2L1.6,228.7z M2.3,231.7
		c0.2-1.3,0.4-2.7,0.6-4.1s0.3-2.8,0.3-4.2L3.1,223c-0.1-0.3-0.1-0.5,0-0.6c0.1-0.1,0-0.4,0-0.6c0-0.1,0-0.2,0.1-0.3
		s0.1-0.2,0.1-0.3l-0.1-0.6c0.1-0.9,0.2-1.5,0.1-1.7c0.1-1.6,0.2-3.2,0.3-4.9c0.1-1.6,0.2-3.2,0.3-4.7l0.3-1.8l-0.3,0.7
		c0.1,0.3,0,0.5-0.1,0.7c-0.2,0.7-0.3,1.5-0.3,2.3c-0.1,0.8-0.2,1.6-0.3,2.3c-0.1,1-0.2,2-0.2,2.9c-0.1,0.9-0.1,1.9-0.3,2.7
		c0.1,1.1-0.1,2.4-0.4,3.7c0,0.7-0.2,1.8-0.5,3.3l0.1,0.4l0,0.2l0.2,0.2l0,0.2l0,0.2c-0.3,0-0.4,0.1-0.4,0.3l0,0.2
		c0,0.1,0.1,0.2,0.2,0.2c0.2,0.5,0.3,1.1,0.1,1.6C2,230.1,2,230.8,2.3,231.7z M2.3,231.7c0.2-1.3,0.4-2.7,0.6-4.1s0.3-2.8,0.3-4.2
		L3.1,223c-0.1-0.3-0.1-0.5,0-0.6c0.1-0.1,0-0.4,0-0.6c0-0.1,0-0.2,0.1-0.3s0.1-0.2,0.1-0.3l-0.1-0.6c0.1-0.9,0.2-1.5,0.1-1.7
		c0.1-1.6,0.2-3.2,0.3-4.9c0.1-1.6,0.2-3.2,0.3-4.7l0.3-1.8l-0.3,0.7c0.1,0.3,0,0.5-0.1,0.7c-0.2,0.7-0.3,1.5-0.3,2.3
		c-0.1,0.8-0.2,1.6-0.3,2.3c-0.1,1-0.2,2-0.2,2.9c-0.1,0.9-0.1,1.9-0.3,2.7c0.1,1.1-0.1,2.4-0.4,3.7c0,0.7-0.2,1.8-0.5,3.3l0.1,0.4
		l0,0.2l0.2,0.2l0,0.2l0,0.2c-0.3,0-0.4,0.1-0.4,0.3l0,0.2c0,0.1,0.1,0.2,0.2,0.2c0.2,0.5,0.3,1.1,0.1,1.6
		C2,230.1,2,230.8,2.3,231.7z M0.8,213.8c0.2,0.5,0.3,1.1,0.2,1.7s-0.3,1.1-0.5,1.6C0.7,216.3,0.8,215.2,0.8,213.8z M1.3,213
		c-0.1-0.5-0.1-1.3,0-2.3c0.1-1,0.3-1.7,0.6-2.4c-0.2,1-0.4,1.9-0.4,2.5C1.6,211.6,1.5,212.3,1.3,213z M3.4,209c0-0.1,0-0.3,0-0.4
		c0-0.1,0.1-0.3,0-0.4c0.3-1.4,0.6-2.8,0.7-4.2l-0.5,0.9c-0.3,0.8-0.4,1.5-0.4,2.2C3.4,207.8,3.5,208.4,3.4,209z M3.4,209
		c0-0.1,0-0.3,0-0.4c0-0.1,0.1-0.3,0-0.4c0.3-1.4,0.6-2.8,0.7-4.2l-0.5,0.9c-0.3,0.8-0.4,1.5-0.4,2.2C3.4,207.8,3.5,208.4,3.4,209z
		 M10.3,237.6c-0.1-0.4-0.1-0.8-0.1-1.3c0-0.4-0.1-0.9-0.1-1.3c0.1-0.3,0.1-0.7,0-1.1l0.1-0.5l-0.1-0.4c0-0.1,0-0.2,0.2-0.2l0-0.2
		l-0.1-0.8c0-0.1,0-0.2,0.1-0.3s0.1-0.2,0.1-0.3c-0.1-0.4-0.1-0.8,0-1.3c0.1-0.4,0.1-0.9,0.2-1.3c0-0.9,0-1.7,0-2.5
		c0-0.8,0.1-1.6,0.2-2.5c-0.1-0.4-0.1-0.7,0.1-0.9l0.1-1.7l0.2-0.2c-0.1,0-0.2,0-0.2-0.1c0-0.1-0.1-0.1-0.2-0.1l0-0.2
		c0.2-0.3,0.3-0.6,0.3-0.7l0-0.2l0.2-0.2c0,0.1,0,0.2-0.2,0.2c-0.1,0.2-0.2,0.2-0.2,0l-0.2,0c0,0.1,0.1,0.2,0.2,0.2l0,0.2l-0.2,0.2
		c-0.2,0.3-0.3,0.6-0.3,0.7l0.2,0l0.2-0.2c0,0.1,0,0.3-0.1,0.5l-0.3,2l-0.4,1.4c0,0.1,0,0.3-0.1,0.5c0,0.6,0,1.4,0.2,2.5l-0.3,0.5
		l0.2,1c0,0.1,0,0.2-0.1,0.3s-0.1,0.2-0.1,0.3l0,0.2c0.1,0.5,0.1,1.3,0,2.2c0.1,0.4,0.1,0.7-0.1,0.9c0.1,0.3,0.1,0.5,0,0.8
		s0,0.5,0,0.8c-0.1,0.2-0.1,0.5-0.1,0.9l0.3,1.5l0,0.2L10.3,237.6z M10.7,221l0.2-0.2c-0.1,0-0.2,0-0.2-0.1c0-0.1-0.1-0.1-0.2-0.1
		c0,0.1,0,0.3-0.1,0.5l-0.3,2l-0.4,1.4c0,0.1,0,0.3-0.1,0.5c0,0.6,0,1.4,0.2,2.5l-0.3,0.5l0.2,1c0,0.1,0,0.2-0.1,0.3
		s-0.1,0.2-0.1,0.3l0,0.2c0.1,0.5,0.1,1.3,0,2.2c0.1,0.4,0.1,0.7-0.1,0.9c0.1,0.3,0.1,0.5,0,0.8s0,0.5,0,0.8
		c-0.1,0.2-0.1,0.5-0.1,0.9l0.3,1.5l0,0.2l0.6,0.8c-0.1-0.4-0.1-0.8-0.1-1.3c0-0.4-0.1-0.9-0.1-1.3c0.1-0.3,0.1-0.7,0-1.1l0.1-0.5
		l-0.1-0.4c0-0.1,0-0.2,0.2-0.2l0-0.2l-0.1-0.8c0-0.1,0-0.2,0.1-0.3s0.1-0.2,0.1-0.3c-0.1-0.4-0.1-0.8,0-1.3
		c0.1-0.4,0.1-0.9,0.2-1.3c0-0.9,0-1.7,0-2.5c0-0.8,0.1-1.6,0.2-2.5c-0.1-0.4-0.1-0.7,0.1-0.9L10.7,221z M4.1,203.5l0.2-0.2l0.2,0
		l0-0.2c0-0.1,0-0.3,0.1-0.5c0-0.1-0.1-0.2-0.1-0.2c-0.1,0-0.1,0-0.1-0.2l0.1,0.4c-0.2,0.3-0.3,0.6-0.3,0.7c-0.1,0-0.2,0.1-0.2,0.1
		C3.9,203.5,4,203.5,4.1,203.5z M4.1,203.5l0.2-0.2l0.2,0l0-0.2c0-0.1,0-0.3,0.1-0.5c0-0.1-0.1-0.2-0.1-0.2c-0.1,0-0.1,0-0.1-0.2
		l0.1,0.4c-0.2,0.3-0.3,0.6-0.3,0.7c-0.1,0-0.2,0.1-0.2,0.1C3.9,203.5,4,203.5,4.1,203.5z M12.3,239.4c0.2-0.6,0.1-0.9-0.1-0.8
		l-0.2,0l0.2,1.2l0,0.2l0.2,0L12.3,239.4z M12.3,239.4c0.2-0.6,0.1-0.9-0.1-0.8l-0.2,0l0.2,1.2l0,0.2l0.2,0L12.3,239.4z M10.1,217.5
		c-0.1,0.2-0.2,0.3-0.4,0.3s-0.2,0.1-0.2,0.2l0,0.2l0.1,0.6l0.2,0c0.1-0.2,0.2-0.3,0.1-0.5c0.1-0.2,0.1-0.4,0.1-0.7L10.1,217.5z
		 M10.1,217.5c-0.1,0.2-0.2,0.3-0.4,0.3s-0.2,0.1-0.2,0.2l0,0.2l0.1,0.6l0.2,0c0.1-0.2,0.2-0.3,0.1-0.5c0.1-0.2,0.1-0.4,0.1-0.7
		L10.1,217.5z M10.3,219.6c0,0.1,0.1,0.2,0.2,0.2l0,0.2l-0.2,0.2c-0.2,0.3-0.3,0.6-0.3,0.7l0.2,0c0.1-0.2,0.2-0.3,0.1-0.5
		c0.2-0.3,0.3-0.6,0.3-0.7l0-0.2c-0.1,0.2-0.2,0.2-0.2,0L10.3,219.6z M10.9,215.8c0,1-0.1,2-0.5,3.1c0,0.1,0.1,0.2,0.2,0.2
		c0.1,0,0.2,0,0.2,0.2l0.4-1.4l0.1-1.7l0-0.2l0.1-0.5l-0.1-0.8l0.2-0.2l0-0.2l0-0.2c0.1-0.2,0.1-0.5,0.1-0.9
		c0.2-0.3,0.3-0.7,0.2-1.1l0.2-0.2l0.7-2.1l0.5-2l0.4-2.4l0.2-2.4l-0.1-0.6l-0.2,0.2c0,0.1,0,0.2-0.2,0.2c-0.1,0.2-0.1,0.5-0.1,0.9
		l-0.2,0.2l-0.2,0.2c-0.1,0.2-0.2,0.3-0.4,0.3l0-0.2l0.2-0.2c0-0.1,0-0.3,0.1-0.5l0.6-1.4l0.4-1.1c-0.1-0.3,0-0.6,0.3-0.9l0.8-2.9
		c0-0.1,0-0.6,0.2-1.5l-0.1-0.4l-0.3,0.5c0.1-0.2,0.2-0.3,0.1-0.5l0.5-0.9l0.4-1.6c0-0.1,0-0.3,0-0.4c0-0.1,0.1-0.3,0-0.4l0-0.2
		c0-0.1,0-0.2,0.1-0.2c0.1,0,0.1-0.1,0.1-0.2l-0.1-0.6l-0.2,0.2l-0.4,1.1l-0.3,0.9c0,0.1,0,0.2-0.1,0.3s-0.1,0.2-0.1,0.3l-0.3,2
		l-0.4,1.1l0.2,0l0.1,0.4c0.1,0.3,0,0.4-0.1,0.5c0,0.1,0,0.2-0.1,0.3s-0.1,0.2-0.1,0.3l-0.2,0c0,0.1-0.1,0.4-0.3,0.7
		c0,0.1,0,0.2-0.1,0.3s-0.1,0.2-0.1,0.3l0,0.2c-0.1,0.2-0.3,0.3-0.6,0.3l-0.2,0.2c-0.1,0.2-0.2,0.3-0.1,0.5l-0.2,0.2l-0.1,0.5
		c0,0.1,0,0.2-0.2,0.2c0.1,0.4,0.1,0.7-0.1,0.9l0.1,0.4l0.2,1c0,0.1,0,0.3-0.1,0.5l0.1,0.4l-0.3,0.9c0,0.1,0.1,0.2,0.1,0.2
		c0.1,0,0.1-0.1,0.1-0.2l0.3-0.9l0.2,0l0.2,0c-0.2,0.6-0.4,1.2-0.6,1.7c-0.2,0.5-0.4,1.1-0.6,1.7l-0.2,0.2c-0.2,0.5-0.3,0.9-0.3,1.3
		s0,0.8-0.1,1.1l0.4-0.1l0.3-0.9l0.1-0.5l0.2,0c-0.1,0.2-0.2,0.3-0.1,0.5c-0.2,0.6-0.2,1-0.2,1.1l-0.2,0.2l0,0.2l0,0.2l-0.3,0.7
		c0.1,0.4,0.1,0.8,0,1.1c0,0.1,0,0.3-0.1,0.5l0,0.2L10.9,215.8z M10.3,218.9c0,0.1,0.1,0.2,0.2,0.2c0.1,0,0.2,0,0.2,0.2l0.4-1.4
		l0.1-1.7l0-0.2l0.1-0.5l-0.1-0.8l0.2-0.2l0-0.2l0-0.2c0.1-0.2,0.1-0.5,0.1-0.9c0.2-0.3,0.3-0.7,0.2-1.1l0.2-0.2l0.7-2.1l0.5-2
		l0.4-2.4l0.2-2.4l-0.1-0.6l-0.2,0.2c0,0.1,0,0.2-0.2,0.2c-0.1,0.2-0.1,0.5-0.1,0.9l-0.2,0.2l-0.2,0.2c-0.1,0.2-0.2,0.3-0.4,0.3
		l0-0.2l0.2-0.2c0-0.1,0-0.3,0.1-0.5l0.6-1.4l0.4-1.1c-0.1-0.3,0-0.6,0.3-0.9l0.8-2.9c0-0.1,0-0.6,0.2-1.5l-0.1-0.4l-0.3,0.5
		c0.1-0.2,0.2-0.3,0.1-0.5l0.5-0.9l0.4-1.6c0-0.1,0-0.3,0-0.4c0-0.1,0.1-0.3,0-0.4l0-0.2c0-0.1,0-0.2,0.1-0.2c0.1,0,0.1-0.1,0.1-0.2
		l-0.1-0.6l-0.2,0.2l-0.4,1.1l-0.3,0.9c0,0.1,0,0.2-0.1,0.3s-0.1,0.2-0.1,0.3l-0.3,2l-0.4,1.1l0.2,0l0.1,0.4c0.1,0.3,0,0.4-0.1,0.5
		c0,0.1,0,0.2-0.1,0.3s-0.1,0.2-0.1,0.3l-0.2,0c0,0.1-0.1,0.4-0.3,0.7c0,0.1,0,0.2-0.1,0.3s-0.1,0.2-0.1,0.3l0,0.2
		c-0.1,0.2-0.3,0.3-0.6,0.3l-0.2,0.2c-0.1,0.2-0.2,0.3-0.1,0.5l-0.2,0.2l-0.1,0.5c0,0.1,0,0.2-0.2,0.2c0.1,0.4,0.1,0.7-0.1,0.9
		l0.1,0.4l0.2,1c0,0.1,0,0.3-0.1,0.5l0.1,0.4l-0.3,0.9c0,0.1,0.1,0.2,0.1,0.2c0.1,0,0.1-0.1,0.1-0.2l0.3-0.9l0.2,0l0.2,0
		c-0.2,0.6-0.4,1.2-0.6,1.7c-0.2,0.5-0.4,1.1-0.6,1.7l-0.2,0.2c-0.2,0.5-0.3,0.9-0.3,1.3s0,0.8-0.1,1.1l0.4-0.1l0.3-0.9l0.1-0.5
		l0.2,0c-0.1,0.2-0.2,0.3-0.1,0.5c-0.2,0.6-0.2,1-0.2,1.1l-0.2,0.2l0,0.2l0,0.2l-0.3,0.7c0.1,0.4,0.1,0.8,0,1.1c0,0.1,0,0.3-0.1,0.5
		l0,0.2l-0.3,1.8C10.9,216.8,10.7,217.9,10.3,218.9z M11.2,211.5c-0.1,0-0.3,0.1-0.4,0.3c-0.1,0-0.2,0.1-0.2,0.2l-0.4,1.4l0.3,1.5
		l-0.1-0.4c0.1-0.3,0.2-0.7,0.3-1.1s0.2-0.9,0.3-1.3L11.2,211.5z M11.2,211.5c-0.1,0-0.3,0.1-0.4,0.3c-0.1,0-0.2,0.1-0.2,0.2
		l-0.4,1.4l0.3,1.5l-0.1-0.4c0.1-0.3,0.2-0.7,0.3-1.1s0.2-0.9,0.3-1.3L11.2,211.5z M13.7,197.1c0,0.1,0.1,0.1,0.2,0l0-0.2
		L13.7,197.1z M13.7,197.1c0,0.1,0.1,0.1,0.2,0l0-0.2L13.7,197.1z M16.5,188.4c0-0.1,0-0.2,0.1-0.2c0.1,0,0.1-0.1,0.1-0.2
		c0.2-0.3,0.3-0.7,0.2-1c-0.1-0.3-0.1-0.7,0-1.2l0.2-0.2l-0.2,0.2l-0.2,0l-0.3,0.9l0.1,0.4l-0.1,0.7c-0.1,0.2-0.2,0.3-0.1,0.5l0,0.2
		L16.5,188.4z M16.5,187.1l-0.1-0.4l0.3-0.9l0.2,0l0.2-0.2l-0.2,0.2c-0.1,0.4-0.1,0.8,0,1.2c0.1,0.4,0,0.7-0.2,1
		c0,0.1,0,0.2-0.1,0.2c-0.1,0-0.1,0.1-0.1,0.2l-0.2,0l0.1-0.7C16.3,187.5,16.3,187.3,16.5,187.1z M19.7,173l0.3-0.5
		c-0.1,0.3-0.1,0.5,0,0.6c0.1,0.1,0.1,0.3,0,0.4l0,0.2l-0.3,0.5C19.6,173.7,19.6,173.3,19.7,173z M19.7,173l0.3-0.5
		c-0.1,0.3-0.1,0.5,0,0.6c0.1,0.1,0.1,0.3,0,0.4l0,0.2l-0.3,0.5C19.6,173.7,19.6,173.3,19.7,173z M45.5,256.7l0.2,0.2l2.6-2
		l-0.6,0.1l-0.2,0c-0.3,0-0.5,0.2-0.8,0.6l-0.6,0.5l-0.2,0c-0.1,0-0.3,0.1-0.4,0.3l-0.2,0L45.5,256.7z M45.5,256.7l0.2,0.2l2.6-2
		l-0.6,0.1l-0.2,0c-0.3,0-0.5,0.2-0.8,0.6l-0.6,0.5l-0.2,0c-0.1,0-0.3,0.1-0.4,0.3l-0.2,0L45.5,256.7z M68.1,241.4
		c-0.4,0.1-0.8,0.4-1.1,0.9c0.3,0.2,0.5,0.1,0.6-0.2c0.1-0.4,0.3-0.5,0.8-0.5C68.3,241.5,68.2,241.4,68.1,241.4z M56.2,165.8
		c-0.3,0.5-0.6,0.8-0.9,0.8l-0.2,0c0,0.1,0.2,0.2,0.4,0.1l0.2,0l0.2,0c0.1,0,0.2-0.1,0.2-0.2l0.1-0.5L56.2,165.8z M56.2,165.8
		c-0.3,0.5-0.6,0.8-0.9,0.8l-0.2,0c0,0.1,0.2,0.2,0.4,0.1l0.2,0l0.2,0c0.1,0,0.2-0.1,0.2-0.2l0.1-0.5L56.2,165.8z M57.8,167.3
		c-0.1,0.2-0.3,0.3-0.6,0.3C57.5,167.5,57.7,167.4,57.8,167.3z M58.5,166.7c0.3,0,0.5-0.2,0.6-0.3c-0.1,0.3-0.2,0.5-0.3,0.5
		c-0.1,0-0.2,0.1-0.3,0.2c-0.1,0.1-0.2,0.1-0.3,0.2L58.5,166.7z M59.3,166.1l0.2,0c0,0.1-0.1,0.2-0.4,0.3L59.3,166.1z M73.1,155.5
		c0,0.1,0,0.2-0.1,0.2c-0.1,0-0.1,0.1-0.1,0.2l-0.2,0c-0.5,0.4-0.6,0.5-0.3,0.5l0.2,0c0-0.1,0-0.2,0.1-0.1c0.1,0.1,0.1,0,0.1-0.1
		l0.4-0.3l0-0.2L73.1,155.5z M73.1,155.5c0,0.1,0,0.2-0.1,0.2c-0.1,0-0.1,0.1-0.1,0.2l-0.2,0c-0.5,0.4-0.6,0.5-0.3,0.5l0.2,0
		c0-0.1,0-0.2,0.1-0.1c0.1,0.1,0.1,0,0.1-0.1l0.4-0.3l0-0.2L73.1,155.5z M75.9,158c-0.1,0-0.2,0-0.2-0.2l0.2-0.2l0.4-0.1l0,0.2
		c0,0.1,0,0.2-0.2,0.2c0,0.1,0,0.2-0.2,0.2L75.9,158z M89.4,214.2c0.1-0.2,0.4-0.3,0.8-0.4l0.2,0l0.2-0.2l0-0.2l-0.2,0.2l-1,0.2
		l0,0.2l-0.2,0.2c0,0.1,0.1,0.2,0.2,0.2L89.4,214.2z M89.3,213.8l0,0.2l-0.2,0.2c0,0.1,0.1,0.2,0.2,0.2l0-0.2
		c0.1-0.2,0.4-0.3,0.8-0.4l0.2,0l0.2-0.2l0-0.2l-0.2,0.2L89.3,213.8z M89.5,211.4l0,0.2c0.1,0,0.2,0,0.2,0.2s-0.1,0.4-0.3,0.7
		c0.1,0,0.2-0.1,0.3-0.2c0.1-0.1,0.2-0.1,0.3-0.2l0.2,0c0-0.1,0-0.3,0.1-0.5l0.1-0.5L89.5,211.4z M89.5,211.4l0,0.2
		c0.1,0,0.2,0,0.2,0.2s-0.1,0.4-0.3,0.7c0.1,0,0.2-0.1,0.3-0.2c0.1-0.1,0.2-0.1,0.3-0.2l0.2,0c0-0.1,0-0.3,0.1-0.5l0.1-0.5
		L89.5,211.4z M89.8,210.3l0.2,0.2l0.8-0.1l0-0.2l-0.6,0.1l-0.2,0c-0.1,0-0.2,0-0.2-0.2L89.8,210.3z M89.8,210.3l0.2,0.2l0.8-0.1
		l0-0.2l-0.6,0.1l-0.2,0c-0.1,0-0.2,0-0.2-0.2L89.8,210.3z M95.1,82c0.1,0,0.2-0.1,0.2-0.2l0.2-0.2l-0.2,0.2
		C95.3,81.9,95.3,82,95.1,82z M95.5,81.5l0.2-0.2l0,0.2L95.5,81.5z"/>
	<path class="st0" d="M166,195.8c-0.3,0.2-0.5,0.3-0.8,0.2c-0.3,0-0.5,0-0.6,0.2c0,0.1-0.3,0.1-0.9-0.1c-0.3,0.8-0.6,1.5-0.9,2.2
		c-0.3,0.7-0.8,1-1.6,0.8c-0.2,0.3-0.5,0.6-0.8,0.9s-0.6,0.6-1,1.1c-0.1,0.2-0.2,0.2-0.2,0c-0.4,0.4-1.1,0.8-2.2,1.5
		c-1.1,0.6-2.2,1.3-3.4,2s-2.2,1.4-3.2,2c-1,0.6-1.6,1.1-1.8,1.4c-0.8,0.1-1.7,0.5-2.7,0.9c-1,0.5-1.8,1-2.4,1.7
		c-1.6,0.6-3.5,1.3-5.5,2.2c-2.1,0.9-4.4,1.2-7,0.9c-0.7,0-1.1,0-1.1,0.1c0,0.1,0.1,0.2,0.3,0.3s0.3,0.2,0.3,0.4s-0.2,0.3-0.8,0.4
		c-0.1-0.6-0.3-0.8-0.6-0.9c-0.3,0-0.6,0-0.9,0c-0.3-0.2-0.7-0.4-1.1-0.6s-0.9-0.2-1.6-0.2c-3.1-2-5.8-4.5-8-7.5
		c-2.2-3-3.9-6.4-5.1-10.4c-0.1-0.4-0.1-0.9,0-1.4c0.1-0.5,0-0.9-0.2-1.1l-1.6-9.1c-0.1-0.3,0-0.5,0.2-0.8s0.2-0.5,0-0.8l-0.2-4.9
		c-0.1-0.4-0.2-0.7-0.3-0.9c-0.1-0.2-0.2-0.4-0.2-0.7l0.2-0.2c0.3,0,0.4-0.2,0.3-0.5c0.2-0.3,0.3-0.5,0.1-0.7
		c-0.2-0.1-0.3-0.3-0.3-0.6l0.6-4c0.1-0.3,0.1-0.6,0.2-0.8s-0.1-0.5-0.5-0.9c0.1-0.3,0.4-0.4,0.8-0.1c0-0.7,0-1.4,0-2.2
		c0-0.7-0.2-1.3-0.5-1.8l0.2,0c0.2-0.3,0.3-0.6,0.3-0.9s0.1-0.4,0.3-0.5c-0.2-2.1,0-4,0.7-5.8c0.7-1.8,0.9-3.6,0.7-5.6
		c0.9-0.6,1.1-1.3,0.7-2.1c0.3,0,0.4-0.3,0.3-0.8c-0.1-0.5,0-0.8,0.2-1l0-0.2l-0.1-0.4c1.1-2,1.5-4.1,1.3-6c1.7-3.5,2.7-6.8,3.1-10
		c0.5-0.2,0.8-0.5,0.8-0.9s0-0.8,0.1-1.2c0.5-1.2,0.9-2.7,1.4-4.3c0.4-1.6,1.2-3.1,2.2-4.5c0.2-1,0.6-2.1,1.1-3.2
		c0.5-1.1,1-2.3,1.5-3.5c1.8-3.8,3.5-7.5,5.3-11.4s4.4-7.4,8-10.8c0.6-0.8,1.2-1.4,2-1.9s1.7-0.9,2.7-1.6c2.8-2.5,6.1-2.9,9.9-1.1
		c0.8,0.4,1.7,0.7,2.7,0.7s1.8,0.5,2.4,1.4c0.6,0,0.9,0.2,0.8,0.4s0.1,0.5,0.3,0.9c0.2,0.3,0.4,0.5,0.8,0.7s0.4,0.6,0.2,1
		c-0.1,0.3,0,0.6,0.2,0.8c0.3,0.2,0.2,0.7-0.1,1.3c0,0.7-0.4,1.6-1.2,2.8l0.1,3.2l-1.2,1.9c-0.2,1.2-0.4,2.3-0.7,3.4
		s-0.6,2.1-1.2,3.1c-0.2,3.5-1.2,6.7-3,9.8s-3.3,6.2-4.5,9.4c-1.1,1.8-2,3.7-2.5,5.8c-0.5,2.1-1.3,4.1-2.2,6
		c-0.4,0.4-0.8,0.8-1.2,1.3s-0.6,1.1-0.4,1.8c-1.5,1.9-2.6,3.8-3.4,5.8c-0.7,2-1.8,4-3.1,6.1c-0.1,1-0.5,1.8-1.1,2.2s-1,1.2-1.1,2.2
		c-0.2,0.3-0.5,0.5-0.7,0.7c-0.3,0.1-0.3,0.5,0,1c-0.8,0.4-1.3,1.2-1.6,2.4c-0.3,1.2-0.7,2.1-1.4,2.6c-0.1,0.4-0.3,0.9-0.7,1.4
		s-0.7,0.9-1,1c-0.8,1.1-1.6,2.6-2.5,4.4c-0.9,1.8-2.4,3.7-4.5,5.6c-0.2,0.5-0.4,0.7-0.7,0.8l0.3,1.5c-0.2,3,0,6.4,0.4,10.1
		s1.4,7.3,2.9,10.8c0.9,2,1.5,3,1.9,3.1c0.3,0.1,0.5,0,0.7-0.3c0.2-0.3,0.3-0.4,0.4-0.3c0.1,0.1,0.4,1.1,1,2.8
		c0,0.1,0.1,0.2,0.2,0.2l0.4-0.1c0.2,0.1,0.4,0.1,0.7,0.1c2.7-0.1,4.6-0.2,5.6-0.5s2.2-0.9,3.6-1.8c2.1-1.2,4-2.4,5.9-3.5
		c1.9-1.1,3.6-2.4,5.2-3.8c0,0.1,0.2,0.2,0.5,0.1l0.2,0l0,0.2c0.3,0,0.3-0.2,0.1-0.5c0.3,0,0.4-0.1,0.4-0.2s0-0.1,0.2-0.1l0.4-0.1
		l0.5-0.7c2.2-1.5,4.1-3.4,5.8-5.6c1.7-2.2,3.6-4.1,5.8-5.6c-0.1-0.4,0-0.7,0.3-0.8c0.3-0.1,0.4-0.4,0.3-0.8c0.1,0,0.2,0,0.1,0.2
		c0,0.1,0,0.1,0.3-0.3c1.3-0.9,2.4-1.8,3.3-2.4c1-0.7,1.3-1.5,0.9-2.6c0.3,0,0.4,0,0.5,0.1c0,0.1,0.1,0.2,0.2,0.2
		c0.4-0.8,0.8-1.4,1-1.7c0.2-0.3,0.5-0.6,0.7-0.8s0.5-0.4,0.8-0.7s0.8-0.8,1.3-1.6c-0.5-0.3-0.6-0.6-0.3-0.7
		c0.3-0.1,0.4-0.3,0.5-0.6c0.3,0.2,0.4,0.4,0.2,0.5c-0.2,0.1-0.2,0.3,0,0.5c0.9-1.5,1.8-2.8,2.6-4.1c0.8-1.3,1.4-1.7,1.6-1.1
		c0.7-0.8,1-1.3,0.9-1.4s-0.2-0.1-0.4,0c-0.2,0-0.4,0-0.4,0s0.2-0.4,1-1.1c0.7-0.3,1.2-0.2,1.7,0.1c0,1,0.5,1.5,1.3,1.5
		c-0.5,0.4-0.6,0.7-0.4,0.9s0.5,0.5,0.7,0.7c0.1,0.6,0.1,1,0,1.3c0.1,1.4,0.1,2.4,0,2.9c-0.1,0.5-0.3,0.9-0.5,1
		c-0.2,0.2-0.4,0.3-0.6,0.4c-0.2,0.1-0.3,0.4-0.2,0.8c0,0.3,0.2,0.5,0.3,0.6l0,0.2c-0.1,0.2-0.2,0.1-0.4-0.1
		c-0.1-0.3-0.3-0.4-0.6-0.5c0,0.3,0.1,0.6,0,0.9s0.1,0.5,0.4,0.6c-0.5,0.5-0.9,0.9-1.1,1.1s-0.4,0.3-0.5,0.3c-0.1,0-0.2,0.1-0.3,0.3
		c-0.1,0.2-0.3,0.5-0.4,1.1l0-0.2l0-0.2c-0.6,0-0.8,0.2-0.7,0.7c0.1,0.5,0,0.9-0.4,1.3c-0.3-0.2-0.4-0.4-0.2-0.6s0.2-0.4,0-0.6
		c-0.3-0.1-0.5,0.1-0.7,0.4c-0.1,0.4-0.4,0.4-0.8,0c-0.1,0.3-0.1,0.8-0.2,1.5c0,0.7-0.2,1.2-0.6,1.6c-0.3,0-0.3-0.1-0.2-0.5
		c0.1-0.4,0.2-0.7,0.1-1c-0.7,0.7-1.1,1.3-1.2,1.7l-0.5,0.7c0,0.1,0.2,0.2,0.5,0.1c0,0.3,0,0.6,0,1c-0.1,0.4-0.4,0.8-1.1,1.2
		c0,1.3-0.6,2-1.7,2.2l0.1-0.5l-0.1-0.4c-0.8,0.1-1.1,0.5-0.7,1c-0.3-0.1-0.5,0-0.6,0.3c-0.1,0.3-0.4,0.4-0.8,0.1
		c-0.2,0.3-0.2,0.5,0.2,0.5c0.4,0,0.4,0,0.1,0.1c-0.1,0.2-0.2,0.2-0.3,0.1s-0.2-0.2-0.4-0.1c-0.7,0.9-1.5,1.7-2.3,2.6
		c-0.9,0.9-1.5,1.8-1.8,2.9c0,0.3,0.2,0.5,0.3,0.6C165.6,195.3,165.8,195.5,166,195.8z M112.4,172.5c-0.1-0.5-0.2-0.9-0.4-1
		c0,0.1,0,0.3,0,0.5C112,172.3,112.1,172.4,112.4,172.5z M122.6,160.8c2.3-4.1,4.3-8.1,6-11.9c1.8-3.8,3.6-7.8,5.6-11.9
		c0-0.1,0-0.2,0.2-0.2c0.7-0.8,1.2-1.9,1.5-3.3s0.6-2.4,1-3.2c1.7-3.3,3.4-6.7,5-10s2.9-6.8,3.9-10.2c0.6-2,1.2-3.9,1.8-5.8
		c0.5-1.9,0.8-3.8,0.9-5.9c1.4-1.2,1.6-2.9,0.8-4.9c-1.5,0.7-2.5,1.7-3.1,3s-1.4,2.5-2.4,3.5c-0.3,1.4-0.8,2.6-1.5,3.8
		c-0.6,1.2-1.3,2.4-2,3.5c-3.1,3.7-5.2,7.7-6.5,11.9s-2.5,8.5-3.7,12.9c-0.4,0.2-0.7,0.3-1,0.4c-0.1,1.2-0.4,2.2-1,3.1
		c-0.6,0.9-0.8,1.8-0.6,2.8c-0.6,1.3-1.1,2.4-1.3,3.5c-0.2,1-0.6,2.2-1.1,3.4c-0.1,0.8-0.4,1.5-0.6,2.1c-0.2,0.7-0.4,1.3-0.6,1.9
		l0.2,1c-0.2,0.6-0.4,1.3-0.7,2c-0.3,0.7-0.3,1.5,0,2.5c-0.6,1-0.8,1.9-0.9,3c0,1-0.1,2-0.2,3L122.6,160.8z M160.5,195
		c0,0.1,0,0.2-0.2,0.2c0.3,0.1,0.5,0,0.5-0.2s0-0.4,0-0.5c0.7,0,1.2-0.3,1.5-1c0.3-0.7,0.6-1.3,1-1.8c0,0.1,0.2,0.2,0.5,0.3
		c0.2-0.3,0.5-0.7,0.8-1.1c0.3-0.4,0.3-0.7,0.1-1c-0.6,0.4-1.3,0.9-2.1,1.5c-0.8,0.6-1.4,1.5-1.9,2.6l-0.6,0.1l0.1,0.4
		c0,0.1,0.1,0.2,0.2,0.2c-0.3-0.1-0.6,0-0.8,0.4c-0.2,0.3-0.2,0.6,0.1,0.8c0.1,0,0.2-0.1,0.3-0.4C160.1,195.4,160.2,195.2,160.5,195
		z M160.6,194.8l-0.2,0.2l0-0.2L160.6,194.8z M165.8,188.9c-0.7,0.1-1,0.5-0.9,1c0.3,0,0.4-0.1,0.5-0.3S165.6,189.3,165.8,188.9z
		 M166.8,189.6c-0.1-0.5-0.1-0.8,0.1-0.9l0.1,0.8c0.4-0.1,0.6-0.2,0.7-0.3s0.2-0.4,0.4-0.7c-0.4,0.1-0.6,0-0.7-0.3
		c-0.4,0.2-0.7,0.5-0.8,0.8C166.4,189.3,166.5,189.5,166.8,189.6z M168,187.9c-0.1,0-0.2,0.1-0.3,0.2c-0.1,0.1-0.2,0.1-0.3,0.2
		c0.5,0.3,0.7,0.4,0.7,0.3C168.1,188.4,168,188.2,168,187.9z M168.9,186.9c0.2,0.1,0.2,0.4,0,0.8c-0.1,0.4-0.1,0.5,0.2,0.5
		c0.1-0.3,0.1-0.5,0.1-0.7C169.2,187.2,169,187,168.9,186.9z M173.2,183.3c-0.5,0.4-0.9,0.7-1.1,0.9c-0.3,0.2-0.5,0.5-0.7,0.8
		c-0.1,0-0.2,0-0.1-0.1c0.1-0.1-0.1-0.1-0.3,0c-0.2,0.3-0.4,0.6-0.6,0.8c-0.2,0.2-0.2,0.5,0.1,1.1c0.8-0.4,1.4-0.9,1.8-1.4
		C172.5,184.7,172.9,184.1,173.2,183.3z M175,182.6c0.1,0.6,0,0.9-0.4,1.1c-0.1-0.4-0.1-0.7,0.1-0.9
		C174.6,182.7,174.7,182.6,175,182.6z M174.3,172.6c-0.2-0.4-0.3-0.3-0.2,0.2L174.3,172.6z M177.2,177c-0.6,0.1-1,0.4-1.4,0.8
		c-0.4,0.4-0.4,0.8-0.2,1c0.2-0.2,0.5-0.4,0.6-0.5C176.4,178.1,176.7,177.7,177.2,177z M180.5,172.8c-0.6,0.5-0.9,1.2-0.7,2.1
		c0.4,0.1,0.8-0.1,1.2-0.5C181.4,173.9,181.2,173.4,180.5,172.8z M182.2,175l0,0.2l0.1,0.8l-0.2-1.2L182.2,175z M182.6,176
		c0,0.1,0,0.2-0.1,0.2c-0.1,0-0.1,0-0.1-0.2L182.6,176z"/>
	<path class="st0" d="M175.6,182.2c0.3-0.2,0.4-0.5,0.4-0.9c0-0.4-0.1-0.8-0.3-1c0.1-0.7,0.2-1.5,0.1-2.2c0-0.7,0.2-1.3,0.9-1.7
		c0.3-0.5,0.4-0.9,0.1-1.1c-0.3-0.2-0.1-0.5,0.4-0.7c0.2-0.6,0.3-1.2,0.4-1.8c0.1-0.6,0.3-1.1,0.7-1.6c0.6-2.8,1.5-5.9,2.8-9.2
		s2.2-6.5,3.1-9.5c0.5-1,1-1.9,1.4-2.8c0.4-0.9,0.6-1.9,0.6-2.9l0.4-0.1c0-1.4,0.9-2.1,2.5-2.1s3.3,0.2,4.9,0.5
		c0.7,0.2,1.2,0.5,1.5,0.9c0.2,0.5,0.4,1,0.5,1.5c-0.2,0.2-0.3,0.5-0.2,0.8c0.1,0.3,0.1,0.6,0.1,1c-0.7,1.7-1.1,3.4-1.2,5.2
		s-0.5,3.5-1.2,5.2c-0.1,0.3-0.2,0.5-0.4,0.7c-0.2,0.2-0.3,0.4-0.4,0.7c-0.2,0.6-0.3,1.5-0.3,2.5c0,1.1-0.3,2.2-0.8,3.5
		c-0.7,2.4-1.3,4.7-1.8,6.8s-0.9,4.4-1.3,6.9c0,2.3-0.1,4.2-0.4,5.9c-0.2,1.6,0.4,3.4,1.9,5.2c3-1.4,5.7-2.9,7.9-4.5
		c2.2-1.6,4.5-3.4,6.9-5.2l4.9-5.2l1.5-1.3l5.8-6.2l4.8-5.4c0.5-0.5,1.1-1.1,1.8-1.7c0.8-0.6,1.4-1.2,1.8-1.7
		c1.2-1.4,2.1-2.4,2.9-3.2c0.7-0.8,1.7-1.8,2.9-3c0.2-0.5,0.5-0.8,0.8-1.1c0.3-0.3,0.7-0.6,1.2-1l1.3-1.3c0.1-0.7,0.7-1.3,1.7-1.8
		c1-0.5,1.5-1.2,1.6-2.2c0.6,0,0.8-0.1,0.8-0.6c0.7,0.2,1,0.5,0.9,0.9c-0.1,0.5,0.1,0.8,0.7,1c-0.3,0.2-0.4,0.6-0.5,1.2
		c-0.1,0.6-0.1,1-0.1,1.1c0.6,0.2,0.9-0.2,0.9-1.1c0-0.9,0.2-1.4,0.6-1.3c0,0.1,0,0.5,0,1.2c0,0.6-0.1,1-0.2,1
		c0.7,0.2,1,0.5,0.6,1.1c-0.3,0.6-0.3,1,0,1.4c-0.2,0.3-0.4,0.5-0.5,0.6c-0.1,0.1-0.2,0.4-0.3,0.8c-0.3,0-0.3-0.1-0.2-0.4
		c0.2-0.3,0-0.4-0.6-0.3c-0.1,0.3-0.2,0.6-0.3,0.8c-0.1,0.2-0.2,0.6-0.2,1.2c-0.3,0-0.4,0-0.4-0.3c0-0.2,0-0.4,0-0.5
		c-0.7,0.1-1,0.4-0.9,0.8c-0.6,0.4-1,0.9-1,1.5s-0.2,1.2-0.5,1.8c-0.4,0.1-0.6,0-0.5-0.1c0.1-0.2,0-0.2-0.5-0.1
		c0.2,0.1,0.1,0.5-0.1,1.2s-0.5,1.4-0.8,2c-0.3,0.6-0.5,1.1-0.7,1.5c-0.1,0.4-0.1,0.3,0-0.3c-0.3-0.1-0.9,0.3-1.7,1.2
		c-0.9,0.9-1.4,1.5-1.6,1.8l-2,2.9c-0.4,0.4-1,1-1.9,2.1c-0.9,1-1.5,1.7-1.7,2l-0.5-0.1c0,0.1,0,0.2,0,0.3s-0.1,0.3,0,0.5
		c-0.2-0.2-0.4-0.2-0.6,0c-0.2,0.3-0.2,0.5,0.1,0.7l-0.6,0.1c0,0.1-0.2,0.7-0.6,1.6c-0.4,0.9-1,1.8-1.9,2.5l-0.1-0.8
		c-0.3-0.1-0.4,0-0.4,0.2s-0.1,0.4-0.3,0.6l0.6-0.1c0,0.6-0.2,0.9-0.5,1s-0.6,0.3-1,0.5c-0.1,0-0.1,0,0.1-0.2
		c0.2-0.2,0.1-0.2-0.1-0.2c-0.2,0.3-0.5,0.7-0.8,1.2s-0.6,0.9-1,1.2c-0.4-0.4-0.6-0.4-0.8-0.1c-0.2,0.3-0.4,0.6-0.6,0.8l-1,0.6
		c-0.4,0.4-0.7,0.7-1,1c-0.3,0.3-0.8,0.6-1.5,0.9c-0.1,0.3-0.1,0.6-0.1,0.9c-0.1,0-0.2,0-0.2-0.2c0-0.1-0.2-0.1-0.4,0.1
		c-0.2,0.3-0.5,0.7-0.9,1.1c-0.4,0.4-0.9,0.8-1.5,1c-0.4,1.1-1.1,1.9-2,2.5c-1,0.6-2,1.2-3,1.8c-1.5,1.4-3,2.5-4.6,3.2
		c-1.5,0.5-3.1,1.2-4.8,1.8c-1.7,0.7-3.7,1-5.8,1.1c-1.4,0-2.8,0-4.2,0.1c-1.3,0.1-2.4,0-3.2-0.3c-1.1-0.5-2-1.2-2.8-2.1
		c-0.8-0.9-1.5-1.6-2-2.2c-0.4-0.1-0.7-0.2-0.7-0.5c0-0.3-0.3-0.6-0.8-0.9c0-0.1,0-0.2,0.1-0.2c0.1,0,0.1-0.2,0-0.4
		c-0.2,0.3-0.4,0.5-0.5,0.5c-0.4-0.6-0.4-1.2,0-1.7s0.4-1.1-0.2-1.7c-0.2,0.3-0.3,0.9-0.1,1.7c-0.3-0.2-0.5-0.6-0.6-1.1
		c-0.1-0.5,0.1-0.8,0.7-0.9c-0.1-0.8,0-1.9,0.3-3.1c-0.3,0-0.5,0.2-0.6,0.3c0-0.7,0.2-1.3,0.5-1.8s0.5-1.1,0.3-1.8
		c-0.3,0-0.4,0.2-0.2,0.5c0.1,0.3,0.1,0.4,0,0.4c-0.4-0.6-0.3-1.6,0.4-2.9c0.1,0,0.2-0.2,0.1-0.5c0,0.3,0,0.6-0.2,1
		C175.2,181.7,175.2,182,175.6,182.2z M201.6,128.4c-0.3,0.2-0.3,0.3-0.1,0.4c0.1,0,0.1,0.2-0.1,0.6c-0.6,0.7-1,1.5-1.2,2.4
		c-0.2,0.9-0.8,1.4-1.8,1.4c-0.6,0.4-1.1,1-1.4,1.8c-0.7,0.1-1.1,0.1-1.3,0c-0.2-0.1-0.4-0.3-0.7-0.5c-0.7,0.1-1.1,0.4-1.1,0.9
		c-1.3-0.2-2.4-0.4-3.2-0.7s-1.8-0.5-2.8-0.8c-0.2-1.2-0.3-2.5-0.1-3.7c0.1-1.2,1.1-1.9,2.8-1.9c0.2-0.3,0.4-0.5,0.5-0.5
		c0.1,0,0.3-0.1,0.4-0.3c1.7-0.2,3.2-0.1,4.5,0.3c1.4,0.3,2.9,0.4,4.8,0.2C200.4,128.3,200.7,128.6,201.6,128.4z M217,180.8
		c0.3,0,0.5-0.2,0.8-0.5c0.2-0.3,0.2-0.5-0.1-0.7L217,180.8z M235.8,157.7c-0.5,0.2-0.9,0.6-1.1,1c-0.2,0.5-0.1,0.9,0.4,1.2
		c-0.1-0.4,0.1-0.9,0.4-1.4C235.8,158.3,235.9,158,235.8,157.7z M237.7,156.3c-0.2-0.1-0.1-0.2,0.2-0.2L237.7,156.3z"/>
	<path class="st0" d="M291.7,190.2l0,0.2c-0.3,0.6-0.5,1.3-0.5,1.9c0,0.6-0.2,1.4-0.5,2.1l0.4-0.1c-0.2,0.7-0.4,1.6-0.8,2.5
		c-0.4,0.9-0.8,1.8-1.2,2.6c-0.5,0.4-0.9,1.1-1.1,2.1s-0.6,1.8-1.1,2.3c-0.3-0.1-0.3-0.3,0-0.8s0.2-0.8-0.3-1.1
		c-0.9,1.3-1.6,2.9-2.1,4.7c-0.5,1.8-1.1,3.4-2.1,4.7c0.1,0.7-0.1,1.3-0.5,1.7c-0.5,0.4-1,0.9-1.5,1.2c0.2-0.3,0.4-0.8,0.5-1.3
		c0.1-0.5,0.3-1,0.5-1.5c-0.7,0.1-1,0.7-1,1.7c-0.8,0.4-1.1,0.8-1,1.2c0.1,0.4,0.1,1-0.2,1.8c0.7-0.1,1.1-0.5,1.3-1.1
		c0.2,0.2,0.1,0.5-0.3,0.8s-0.7,0.7-0.9,1.1c0,1-0.6,2-1.8,2.9c-0.3,0-0.4,0.4-0.3,0.9c-1,0.2-1.5,0.8-1.7,1.8
		c-0.2,1-0.6,1.8-1.4,2.2c-0.1,1.2-0.5,2.2-1.4,3c-0.9,0.9-1.3,1.9-1.4,3c-0.2,0.5-0.5,1-1,1.5c-0.5,0.5-0.9,0.8-1.4,0.9
		c0.4-1.5,1.2-2.9,2.3-4.1c1.1-1.2,1.8-2.6,2.2-4.3c0.3,0,0.5-0.2,0.6-0.4s0-0.5-0.3-0.7c-1.6,3.3-3.5,6.2-5.7,8.8
		c0.1,0.4-0.1,0.9-0.5,1.5s-0.9,1.1-1.5,1.7l0.1,0.8c-1,1.3-2.2,2.6-3.4,3.8c-1.2,1.2-2.6,2.4-4.1,3.5c0,0.1,0.1,0.2,0.3,0.3
		c0.1,0,0.2-0.1,0.1-0.4c0.5,0.2,0.6,0.4,0.3,0.5c-0.3,0.1-0.3,0.2-0.1,0.4c0.8-0.3,1.5-0.8,2.1-1.5c0.6-0.8,1.4-1.2,2.3-1.4
		c0.2-1.3,0.7-2.4,1.5-3.2c0.8-0.8,1.3-1.6,1.6-2.3c0.2,0.1,0.4,0.4,0.8,0.7l0.5,0.1c-0.2,0.3-0.6,0.5-1.2,0.4l0.1,0.8
		c-0.6-0.2-1,0-1.1,0.4c-0.1,0.5-0.3,0.8-0.5,1.2c0,0.3,0.1,0.3,0.1,0.2c0-0.1,0.1-0.1,0.1,0.2c-0.2,0.7-0.7,1.3-1.5,1.7
		c-0.9,0.4-1.4,0.9-1.5,1.7c-0.3,0-0.4,0-0.4,0c0-0.1-0.1-0.1-0.2-0.1c-1.1,1.8-2.5,3.2-4.1,4.2c-1.6,1-2.9,2.2-3.8,3.7
		c-0.3-0.1-0.7,0.1-1.3,0.5c-0.6,0.4-1,0.8-1.2,1.1c-0.2,0.3,0,0.4,0.7,0.3c-0.9,0.5-1.6,0.7-2,0.8c-0.4,0.1-1,0.1-1.7,0.1l0.1,0.4
		c-0.2-0.1-0.3-0.2-0.3-0.4c-0.9,0.5-1.8,0.7-2.7,0.7c-0.9,0-1.8,0-2.8,0.1c0-0.6,0-0.9-0.1-1c-0.1-0.1-0.1-0.2-0.2-0.5
		c-0.4,0.2-0.8,0.4-1.2,0.4c-0.4,0.1-0.6,0-0.7-0.3c-0.1,0-0.2,0.2-0.1,0.7c-0.7-0.2-1.5-0.3-2.2-0.5c-0.7-0.2-1.5-0.4-2.3-0.7
		l1-0.2c-0.2-0.2-0.3-0.6-0.3-0.9c0-0.4-0.1-0.6-0.2-0.7c-0.1-0.4,0.1-0.7,0.5-0.7l-0.1-0.6c-0.2-0.1-0.3-0.1-0.4,0
		c-0.1,0.1-0.3,0.1-0.4,0c-0.2,0.3-0.2,0.6,0.1,1s0.3,0.6,0.1,1l-1.9-0.7c-0.5-0.2-0.6-0.2-0.5,0c0.1,0.2,0.1,0.4,0,0.5
		c-0.1,0-0.2-0.1-0.3-0.4l-0.1-0.6c-0.3-0.1-0.4-0.2-0.2-0.4s0.4-0.2,0.7-0.1c-0.3-1.5,0-2.6,0.9-3.2c0,0.1-0.1,0.2-0.3,0.3
		c-0.2,0-0.1,0.2,0.2,0.4c0.3-0.6,0.6-1.3,0.9-1.9c0.2-0.6,0.2-1.2-0.2-1.7c0.2-0.2,0.4-0.2,0.3,0c0,0.2,0.1,0.3,0.4,0.2
		c-0.2-1-0.2-1.9,0-2.7c0.2-0.8,0.4-1.8,0.5-2.8c0.3,0,0.3,0,0.1,0.1s-0.2,0.3,0,0.5c0.6-0.4,0.9-0.9,0.7-1.4s-0.1-1,0.3-1.3
		c0.1,0.5,0.1,1-0.1,1.3c-0.2,0.3-0.1,0.6,0,0.9c0.6-0.5,1-1.2,1.1-2.1s0.3-1.7,0.6-2.5c0.2-0.3,0.5-0.7,0.9-1.1
		c0.4-0.4,0.4-0.9,0.2-1.4c0.6,0.2,1,0,1.3-0.5c0.3-0.5,0.5-1,0.7-1.3c0-0.3-0.1-0.4-0.3-0.4c0.2-1,0.6-2,1-2.8
		c0.4-0.8,0.8-1.6,1-2.5c0-0.1-0.1-0.2-0.1-0.2s-0.1,0.1-0.1,0.2c0-0.9,0.3-1.7,0.8-2.5s0.9-1.7,1-2.8c1,0,1.4-0.4,1.3-1.2
		c-0.1-0.8,0.1-1.4,0.7-2c-0.2-0.2-0.3-0.5-0.2-0.7c0-0.2,0-0.5,0-0.8c0.5-0.1,0.9,0,0.9,0.3c0.6-0.7,1.2-1.5,1.8-2.4
		c0.6-0.9,1-1.8,1.1-2.7c0.1,0,0.2,0,0.2,0.1c0,0.1,0.1,0.1,0.2,0.1c0.4-0.4,0.7-1,1.1-1.8c0.4-0.9,0.8-1.6,1.4-2.3
		c-0.3-1-0.2-1.8,0.2-2.4c0.2,0.5,0.2,0.9,0,1c-0.3,0.1-0.3,0.4-0.1,0.8c0.2-0.2,0.5-0.6,0.8-1.3c0.3-0.7,0.4-1.4,0.3-2.1
		c0.3,0.2,0.4,0.2,0.3-0.2c-0.1-0.3,0-0.4,0.3-0.2l-0.3-1.5c0.3,0,0.5-0.2,0.8-0.4c0,0.1,0,0.2-0.1,0.4c-0.1,0.1,0,0.2,0.3,0.3
		c0.3,0,0.5,0,0.7,0.1c0.4-0.9,0.8-1.8,1.3-2.5s0.8-1.7,1.2-2.9l1-0.2c0.9-1.6,1.8-3.1,2.8-4.7s2-3.1,3-4.7c0.3-0.6,0.6-1.2,1-1.6
		c0.4-0.4,0.6-0.9,0.8-1.5c0.3,0,0.4-0.1,0.5-0.3s0.2-0.3,0.5-0.5l-0.1-0.4c0.8-0.3,1.2-1.3,1.2-3c0.3,0.1,0.5,0.3,0.6,0.8
		c2.3-3.1,4.3-6.3,6.1-9.6c1.8-3.2,4-6.3,6.6-9.2c-0.1-0.4,0-0.7,0.1-0.8c0.1-0.1,0.3-0.3,0.5-0.6c0.1,0,0.2,0,0.2,0.2
		c0,0.1,0,0.2-0.2,0.2c0.1,0,0.3-0.2,0.5-0.5c0-0.1-0.1-0.2-0.2-0.2c0.3-0.8,0.3-1.9,0.1-3.5c-0.2-1.5-0.5-2.9-0.9-4.1
		c-0.5-1.2-1.1-2-1.7-2.3c-0.6-0.3-1.6-0.3-3,0.1c-1.5,0.7-2.7,1.5-3.7,2.3c-1,0.8-2.1,1.7-3.2,2.6c-1,0.9-2,1.8-3.1,2.6
		c-1.1,0.8-2,1.6-2.7,2.3c-0.5,1.1-1.4,2.2-2.5,3.4c-1.2,1.1-2,2.3-2.5,3.4l-1-0.7l-1.1,0.9l-0.2,0l-0.1-0.4c-0.3,0-0.4,0.3-0.3,0.7
		c-1.3-0.8-2.5-1.4-3.7-1.8c-1.1-0.4-2.4-1.1-3.7-2c0.2-0.5,0.1-0.8-0.2-1c-0.3-0.2-0.5-0.7-0.7-1.4l0.4-0.1l-0.2-1.2
		c0.3,0,0.4-0.1,0.4-0.2s0.1-0.1,0.4-0.2c0-0.6,0.3-1.1,0.7-1.7c0.4-0.6,0.8-1.2,1.1-1.8c0.1-0.2,0.1-0.5,0-1.1l1.3-4.5l1-3
		c0.1-0.3,0.1-0.5,0-0.8c-0.1-0.2-0.1-0.4,0-0.5c0.4-1.5,0.9-2.9,1.3-4.1c0.4-1.2,0.6-2.6,0.6-4.2c-1.4,1.2-2.9,2.8-4.8,4.6
		s-3.3,3.6-4.4,5.4c-1.4,1.8-2.5,3.2-3.4,4.3c-0.9,1-1.7,1.9-2.4,2.7c-0.7,0.8-1.3,1.5-1.9,2.2c-0.5,0.7-1.1,1.5-1.8,2.5
		c-1.3,2.1-2.4,3.2-3,3.4c-0.7,0.2-1.6,0.2-2.8,0.2c-0.3-0.1-0.7-0.1-1.3-0.2c-0.6,0-1.3,0-2.1,0.2c0-0.7,0.4-1.3,1.1-1.8
		c0.7-0.5,0.7-0.9-0.1-1.2c0-0.3,0-0.5,0-0.5c0.1-0.1,0.1-0.3,0-0.5c0.4-0.1,0.8-0.3,1.2-0.6l-0.1-0.4l-0.1-0.4
		c3.4-4.5,6.2-8.9,8.6-13.2c2.4-4.4,5.1-8.3,8.2-11.9c1.4-1.2,2.4-2.4,3.1-3.6c0.7-1.1,2-2.3,3.8-3.5c0.7,0,1.5-0.3,2.3-0.9
		c0.8-0.6,1.7-1,2.7-1.1l3.5,1.3c0.3,0.1,0.6,0.1,1-0.1c0.3-0.1,0.7-0.2,1.2-0.1c0.6,0.2,1.1,0.5,1.6,1c0.4,0.5,0.9,1,1.4,1.5
		c0.8,0.6,1.4,1,1.8,1.3c0.4,0.3,0.7,1,0.9,2.1c0.3,0.8,0.5,1.7,0.6,2.7c0.1,1,0.2,2,0.2,3c-0.8,1.9-1.5,3.7-1.9,5.6
		c-0.5,1.9-1,3.8-1.6,5.8c4.2-1.9,8.6-2.8,13-2.7s7.9,1.5,10.4,4.2c0.1-0.2,0.3,0.1,0.5,0.8s0.4,1.4,0.5,2.3
		c0.1,0.8,0.3,1.6,0.4,2.2c0.1,0.6,0.3,0.8,0.5,0.5c0.7-0.3,1.3-0.6,1.9-1.1c0.6-0.5,1.4-0.8,2.5-1c0.1,0,0.7-0.5,1.7-1.3
		c1-0.8,1.5-1.4,1.4-1.6l10.5-8.5c0.1-0.2,0.2-0.1,0.2,0.1c0,0.2,0.1,0.2,0.2-0.1c0.4-0.2,0.6-0.4,0.5-0.5c0-0.1,0-0.3,0.1-0.5
		c0.2-0.3,0.7-0.7,1.3-1.1c0.6-0.4,0.9-0.8,0.9-1.2c0.7-0.3,1.2-0.6,1.6-1c0.4-0.4,0.8-0.8,1.2-1.2c1.5-0.3,2.4-0.7,2.5-1.3
		c0.2,0.1,0.4,0,0.8-0.2c0.4-0.3,0.4-0.5,0.1-0.8c0.7-0.3,1.3-0.6,1.9-1c0.6-0.4,1.3-0.9,2.2-1.5c0.5,0.6,1.4,0.3,2.4-0.9
		c-0.1,0.9-0.5,1.6-1.1,2.1c0,0.3,0.2,0.4,0.5,0.3c0.3,0,0.4,0.1,0.5,0.3c-0.6,0.4-1.2,0.7-1.5,1c-0.4,0.3-0.1,0.5,0.8,0.6
		c-0.5,0.5-0.9,1-1.3,1.3c-0.4,0.4-0.6,0.8-0.6,1.4c-1.5,0.5-2.1,1.4-1.9,2.5c-0.3,0.2-0.6,0.2-1.1,0c-0.2,0.6-0.4,1.1-0.8,1.5
		c-0.4,0.4-0.8,1-1.2,1.8c-0.1,0-0.3-0.3-0.4-1c-0.7,0.7-1.3,1.4-1.7,2.1c-0.4,0.7-0.9,1.3-1.5,1.9l0.5-0.9
		c-0.2,0.3-0.4,0.6-0.5,0.7c-0.1,0.2-0.3,0.3-0.6,0.3c-0.2-0.2-0.1-0.5,0.3-0.6c0.4-0.1,0.4-0.3,0.1-0.6c-0.3,0.2-0.5,0.4-0.7,0.5
		c-0.2,0.2-0.5,0.3-1.1,0.4c0,0.3,0.1,0.5,0.3,0.6c0.2,0.1,0.5,0.1,1.1,0c-0.3,0.2-0.5,0.3-0.8,0.4c-0.1,0.3-0.1,0.5,0,0.8
		s0.1,0.5-0.1,1c-0.1,0-0.2,0-0.1-0.1c0.1-0.1,0,0-0.3,0.2c-0.6,0.7-1.3,1.5-2.1,2.3c-0.8,0.9-1.4,1.7-1.8,2.5c-0.1,0-0.2,0-0.2-0.2
		c0-0.1-0.1-0.2-0.2-0.2c-0.4,0.2-0.7,0.5-0.8,0.9c-0.1,0.4-0.6,0.6-1.3,0.8c0.2,1-0.1,1.6-1,1.9c-0.3-0.1-0.3-0.3,0.1-0.6
		c0.4-0.3,0.5-0.6,0.5-0.8c-0.6,0.4-1,0.9-1,1.4c0,0.5-0.4,1-1,1.6c-0.3-0.2-0.3-0.5,0.1-0.9s0.4-0.7,0.2-1.1c-1.4,1-2,1.9-1.6,2.9
		c-0.3,0.5-0.5,0.7-0.5,0.5l-0.2-0.2c-1.3,0.9-2,1.7-2.3,2.2c-0.3,0.5-1.1,1.1-2.6,1.6c-0.1,0.4-0.2,0.7-0.5,0.7
		c-0.3,0-0.6,0.1-1,0.1c-0.4,0-0.6,0-0.8,0.1c-0.2,0.1-0.2,0.5,0.1,1.2c0,0.6-0.2,1.2-0.4,1.9s-0.4,1.4-0.6,2.1
		c-0.1,0.2-0.2,0.1-0.4-0.1c-0.1-0.3-0.3-0.4-0.6-0.3c-0.4,2.5-0.7,5-0.9,7.5s-0.6,5-1.3,7.5l0.1,0.8c-0.2,0.3-0.4,0.8-0.5,1.3
		c-0.1,0.5,0,1,0.4,1.5c-0.3,0.8-0.6,1.6-1,2.4C292.1,188.7,291.8,189.5,291.7,190.2l0.2,0L291.7,190.2z M236.2,244.8
		c0.5-0.4,0.7-1,0.5-2c-0.2,0.2-0.4,0.5-0.4,0.9C236.3,244.2,236.3,244.5,236.2,244.8z M237.7,251.2c-0.3,0-0.4,0.2-0.3,0.6
		s0.1,0.7,0.2,0.9c0.3,0.1,0.5-0.1,0.4-0.5C238,251.8,237.9,251.5,237.7,251.2z M236.9,241.5c0.3,0.1,0.4,0,0.3-0.4
		s-0.2-0.6-0.3-0.9C236.4,240.7,236.4,241.1,236.9,241.5z M244.2,226c0.1-0.7,0.5-1.5,1-2.1c0.5-0.7,0.6-1.3,0.2-2
		c-0.1,0.7-0.4,1.4-0.8,2.1C244.2,224.6,244.1,225.3,244.2,226z M252.6,226c-0.5,0.4-0.8,1-0.9,1.8c-0.1,0.8-0.2,1.6-0.3,2.3
		c-0.1-0.4-0.2-0.6-0.3-0.6c-0.1,0.3,0,0.5,0.1,0.7c0.2,0.2,0.1,0.3-0.1,0.4l0-0.2l-0.4,0.1c-0.2,0.6-0.3,1.2-0.3,1.9
		s-0.1,1.3-0.3,2.1c-0.2-0.1-0.2-0.3-0.1-0.6c0.1-0.3,0-0.5-0.3-0.6c-0.3,0.8-0.4,1.5-0.2,2.1c0.2,0.6,0.1,1.1-0.3,1.5l-0.3-0.4
		c-0.6,1.3-1.1,2.6-1.3,4.1s-0.1,2.9,0.4,4.2c0.3,0,0.6-0.1,1-0.1s0.7-0.1,0.9-0.3c0-0.3,0-0.5,0.2-0.6s0.1-0.3-0.2-0.5
		c1-0.6,1.8-1.3,2.3-1.9c0.5-0.7,1.3-1.2,2.4-1.7c0.2-0.5,0.5-0.9,0.8-1.2c0.3-0.3,0.5-0.7,0.6-1c0.4-0.2,0.7-0.4,0.8-0.7
		c0.2-0.2,0.4-0.5,0.6-0.6c1.2-1.8,2.6-3.5,4-5.1c1.4-1.6,2.7-3.2,3.9-4.9c0.4-0.8,0.8-1.5,1-2.2c0.2-0.7,0.7-1.2,1.3-1.6
		c0-0.6,0.2-1.1,0.6-1.6c0.3-0.5,0.5-1.2,0.5-2c0.6-0.4,1-0.9,1-1.5c0-0.6,0.4-1.1,1-1.5c0.6-1.7,1.3-3.2,2.3-4.7
		c1-1.5,1.6-3.2,2-5.3c-0.3,0-0.4,0.2-0.4,0.4c0,0.2,0,0.2,0,0.1c0-0.3,0-0.5,0.1-0.7c0-0.1,0-0.2,0.2-0.2c0.3-2.1,1.2-4.1,2.6-6
		c0.1-1.6,0.5-3.1,1.2-4.5c0.7-1.4,1-3.1,0.9-5.1c0.4-0.1,0.6-0.2,0.7-0.4s0.2-0.4,0.5-0.4l3.3-12.8l-0.9-1.1
		c-0.9,1.6-1.8,3-2.7,4.3s-1.8,2.8-2.7,4.3c0-0.3-0.1-0.3-0.2-0.2c-0.3,0.9-0.7,1.6-1.4,2.1s-1,1.2-1.1,2.2
		c-0.5-0.3-0.8-0.3-0.8,0.2c0,0.5-0.1,0.9-0.2,1.2c-0.2,0.2-0.6,0.6-1.1,1.3c-1.6,2-3.3,4.3-4.9,7s-3,4.9-4.2,6.9
		c-0.3-0.1-0.4,0-0.4,0.3s0,0.3-0.2,0c-0.1,0.3-0.3,0.7-0.5,1.2c-0.3,0.5-0.4,1-0.3,1.5c-0.7,0.1-1.1,0.5-1.3,1
		c-0.2,0.5-0.4,1.1-0.5,1.7c0-0.3-0.1-0.4-0.3-0.4c-0.3,0.5-0.5,1.1-0.3,1.8c-0.5-0.9-0.6-1.4-0.5-1.4c-0.5,1-1,1.8-1.5,2.4
		c-0.5,0.6-0.5,1.4-0.2,2.2c-0.8,0.3-1.3,1.4-1.6,3.3c-0.1,0-0.3,0-0.5-0.1c0.2,0.2-0.1,0.7-1,1.5c0,0.9-0.2,1.6-0.7,2.2
		c-0.5,0.6-0.7,1.4-0.6,2.6c-0.6,0.4-0.9,1-0.7,1.9c0.1,0.8,0.1,1.6-0.2,2.4c-0.2-0.5-0.3-1-0.1-1.3
		C252.5,226.6,252.6,226.3,252.6,226z M255.5,247.4c-0.4,0.2-0.8,0.5-1.1,0.9c-0.4,0.4-0.8,0.6-1.2,0.6c0,0.3,0.2,0.4,0.4,0.2
		c0.2-0.1,0.4-0.2,0.7-0.2l0.2,0.2c0,0.1,0.1,0.2,0.2,0.2c0-0.3,0.3-0.5,1-0.6c-0.3-0.2-0.3-0.5,0-0.8
		C256,247.6,256,247.4,255.5,247.4z M253.6,241.5c0.6-0.7,1.2-1.2,2-1.6c0.7-0.4,1.1-1,1.3-1.7c-0.6,0.7-1.3,1.2-2.1,1.5
		C254,240,253.6,240.6,253.6,241.5z M261.6,239.2c0.1,0,0.3-0.1,0.5-0.3c0.2-0.2,0.1-0.3-0.2-0.4
		C261.6,238.8,261.5,239.1,261.6,239.2z M262.7,238.1c0.4-0.2,0.5-0.5,0.5-0.9C263,237.2,262.8,237.5,262.7,238.1z M263.9,241.6
		c0.8-0.1,1.2-0.5,1.1-1.1C264.2,240.7,263.8,241,263.9,241.6z M267,237.4c0,0.1,0.1,0.1,0.2,0C267.1,237.2,267,237.2,267,237.4z
		 M275.3,220.9c-0.9,0.6-1.4,1.2-1.6,1.8C274.9,222.4,275.4,221.8,275.3,220.9z M275.3,220.9c0.9-0.5,1.4-1.4,1.4-2.8
		c-0.3,0.5-0.7,1-1,1.4C275.3,219.8,275.2,220.3,275.3,220.9z M277,217.5c0.6-0.8,1-1.6,1.4-2.5c0.4-0.9,0.5-1.7,0.5-2.6
		c-0.1,0.9-0.5,1.7-1.1,2.6c-0.6,0.8-0.9,1.6-0.8,2.3L277,217.5z M279.1,217c-0.4,0.4-0.7,0.7-1.1,1.1c-0.4,0.4-0.6,0.9-0.6,1.6
		c0.6-0.4,1-0.8,1.2-1.3C278.7,217.9,278.9,217.4,279.1,217z M282.4,208c0,0.3,0,0.5-0.2,0.8c-0.2,0.2-0.2,0.5-0.2,0.8
		c0.3,0,0.5-0.3,0.6-0.8C282.8,208.3,282.7,208.1,282.4,208z M288.4,195.8c0.4,0.4,0.4,0.6,0.2,0.8c-0.2,0.2-0.2,0.4,0,0.6
		c0.4-0.1,0.7-0.7,0.7-1.9C289.1,195.5,288.8,195.7,288.4,195.8z M307.9,152.7c0.8-0.4,1.6-1,2.5-1.6s1.1-1.4,0.7-2.2
		c0-0.3,0-0.4,0.1-0.5s0-0.1-0.3-0.4c-0.4,0.2-0.7,0.5-0.9,0.8c-0.2,0.3-0.7,0.7-1.3,1.1l0.1,0.6l0.4-0.1c0.2-0.3,0.5-0.6,0.7-1
		c0.2-0.3,0.5-0.4,0.8-0.1c-0.2,0.3-0.7,0.8-1.5,1.3C308.5,151.3,308.1,152,307.9,152.7z M311.8,149.5c-0.2-0.1-0.2-0.3,0-0.5
		s0.1-0.4-0.2-0.5c0.2,0.2,0.1,0.5-0.2,0.7c-0.3,0.2-0.3,0.3,0.2,0.4L311.8,149.5z M313.1,147.9c0.8-0.1,1.2-0.5,1.1-1.1
		c-0.7,0.1-1,0.2-0.9,0.4C313.4,147.4,313.3,147.6,313.1,147.9z M315.1,144.6c-0.1,0.2-0.1,0.2,0,0.2L315.1,144.6z M315.6,144.3
		l-0.4,0.3c0,0.1,0.1,0.2,0.2,0.2l0.2,0.2L315.6,144.3z"/>
	<path class="st0" d="M405.6,135.7c-0.7,0-1.3,0.4-1.7,1.3c-0.4,0.9-0.8,1.7-1.3,2.5c0-0.1,0-0.4,0.1-0.7c-1,1-1.8,2.1-2.7,3.2
		c-0.8,1.1-1.7,2.3-2.6,3.6l-0.4,0.1l0-0.2c-0.2,0.3-0.5,0.7-0.8,1.2c-0.3,0.5-0.6,0.6-1.1,0.4c-0.6,0.5-1,1.1-1.3,1.7
		s-0.6,1-1.2,1.3c-0.6,0.8-1,1.4-1.4,1.9c-0.3,0.4-0.9,1-1.6,1.9c0-0.1-0.2-0.2-0.5-0.1c-0.3,0.6-1.2,1.2-2.5,1.7
		c-1.4,1.1-2.6,2.2-3.6,3.3c-1,1.1-2.1,1.8-3.4,2c-1.2,0.4-2.1,0.7-2.6,0.9c-0.5,0.2-1.1,0.4-1.9,0.3c-1.1,0.2-2.4,0.8-4,1.7
		c-1.5,0.9-2.9,1.3-4.1,1.1c-0.4-0.6-1-1-1.7-1.2c-0.8-0.3-1.5-0.5-2.2-0.7c-0.7-0.2-1.2-0.7-1.7-1.6c-1.7-0.7-3.1-1.9-4.1-3.7
		c-1-1.8-1.8-3.8-2.3-6.2s-0.8-5-0.8-7.7s0-5.4,0.3-8c-1.7,1.9-3.2,4-4.6,6.5c-1.4,2.5-2.9,4.8-4.3,7.1c-0.5,1.4-1,2.5-1.7,3.5
		c-0.7,1-1.4,1.9-2.1,2.7c-1.9,3.2-3.6,6-5.4,8.5c0,0.1,0,0.2,0,0.3s-0.1,0.3-0.2,0.6c-1,1-2,2.2-3.2,3.6c-1.2,1.4-2.4,2.5-3.8,3.6
		c-1.3,1-2.8,1.8-4.3,2.2s-3.3,0.2-5.2-0.8c-1,0-1.7-0.2-2.1-0.6c-0.4-0.4-1-0.8-1.8-1.1c-1.6-0.4-2.7-1.1-3.3-2
		c-0.5-0.9-1-2.3-1.5-4.2c-0.3-0.9-0.4-2.2-0.4-3.8c0.1-1.6,0.3-3,0.6-4.2c0.2-2.8,0.8-5.4,1.8-8c1-2.5,1.9-4.9,2.8-7
		c1.8-3.6,3.6-7,5.6-10.1c1.9-3.1,4-6.3,6.2-9.4c0.8-0.6,1.5-1.3,2.3-2.1c0.8-0.9,1.7-1.6,2.7-2.2c0.7,0.2,1.5-0.2,2.2-0.9
		c0.7-0.8,1.4-0.7,2.2,0.1c3-0.2,5.6,0,8.1,0.7c2.4,0.7,4.3,2.2,5.5,4.6c0.9-0.9,1.6-1.6,2.4-2.4c0.7-0.7,1.6-1.3,2.5-1.7
		c0.4-0.2,0.7-0.6,0.9-1s0.4-0.7,0.7-0.8c1.3-0.5,2.7-0.5,4,0.1s2.6,1.1,3.8,1.5c0.1-0.2,0.3-0.2,0.5-0.2s0.5-0.1,0.9-0.3
		c0.4,0.4,0.6,0.6,0.8,0.8c0.2,0.2,0.4,0.5,0.6,0.9c0.7,2.5,0.9,5.2,0.5,8.3c-0.4,3.1-1,5.7-1.7,7.8c0,3.3-0.1,6.9-0.4,10.8
		c-0.3,3.9,0.2,7.2,1.5,9.8c4.8-1.4,8.6-3.4,11.5-5.8c2.9-2.5,5.9-4.9,8.9-7.3c1.1-1.2,2.1-2.2,3-3.1c0.9-0.9,1.8-2,2.5-3.2
		c0.1,0,0.3,0,0.5,0.1l0,0.2c0.7-0.1,1.9-1.2,3.7-3.4c1.8-2.1,3.6-4.3,5.4-6.5c1.8-2.3,3.5-4.2,5.2-6c1.6-1.7,2.6-2.4,3-2
		c0.3,0.2,0.7,0.2,1.1-0.1s0.7-0.4,1-0.3c0.2,0.3,0.3,0.5,0.2,0.6s0,0.3,0.2,0.4l-0.1-0.4c0.1,0,0.2,0.1,0.1,0.5
		c-0.1,0.4-0.2,0.8-0.2,1.1c-0.1,0.4-0.2,0.6-0.3,0.8c-0.1,0.2-0.1,0-0.1-0.4c-0.2,0.3-0.5,0.7-0.8,1.1c-0.3,0.4-0.5,0.8-0.8,1.1
		c-0.2,0.8-0.2,1.3-0.3,1.5c0,0.3-0.1,0.8-0.3,1.5c-0.4,0.1-0.7,0.1-0.9-0.1c-0.2,0.8-0.5,1.3-0.9,1.7c-0.4,0.4-0.7,1-0.8,1.9
		c-0.3,0-0.5,0.5-0.7,1.2L405.6,135.7z M345.6,128c-0.6-1.8-1.4-3.2-2.4-4.3c-1-1.1-2.4-1-4.1,0.3l-2.7,4.3
		c-0.2,0.5-0.5,0.8-0.9,1.1s-0.7,0.6-0.9,0.9c-0.2,0.3-0.4,0.8-0.6,1.3c-0.2,0.5-0.4,1.1-0.8,1.8l-2.3,3.9c-1.2,2.2-2.3,4.7-3.3,7.4
		c-1,2.7-1.9,5.2-2.6,7.7c-0.2,0.8-0.4,1.4-0.7,2.1c-0.3,0.6-0.5,1.5-0.6,2.7c-0.3-0.1-0.4,0-0.4,0.2s0,0.3-0.2,0.1
		c0,1.6-0.3,2.9-0.8,4.1c-0.5,1.2-0.6,2.6-0.3,4.2c1-0.9,2-1.8,3.2-2.7c1.1-0.9,2-1.9,2.7-2.9c3.3-4.6,6.5-9.4,9.4-14.2
		c2.9-4.9,5.8-9.9,8.6-15c0.4-0.4,0.6-0.8,0.8-1.3c0.2-0.5,0.5-0.9,0.9-1.1l-0.1-0.4C347.2,127.8,346.5,127.8,345.6,128z"/>
	<path class="st0" d="M442.4,148c-0.3,0.6-0.5,1-0.4,1.1c0,0.1,0,0.4-0.1,0.9c-1.5,1.4-3.1,2.9-4.9,4.3s-3.6,2.9-5.4,4.2l0.1,0.4
		c-0.2,0.2-0.5,0.3-0.8,0.2s-0.5,0-0.6,0.2c-0.5,0.4-1.1,0.8-1.7,1.3s-1.2,1-1.7,1.5c-0.3,0-0.6,0.1-1,0.3c-0.4,0.1-0.8,0.2-1.2,0.3
		c-0.7,0.4-1.5,0.8-2.5,1.1c-1,0.3-1.9,0.4-2.6,0.3c-1.4,0-2.8-0.5-4.1-1.4s-2.8-1.6-4.4-2c0.5-0.4,0.6-0.7,0.2-1
		c-0.3-0.3-0.5-0.7-0.4-1.1c-0.5,0.5-0.6,0.9-0.3,1s0.3,0.4,0.2,0.7c-0.3-0.1-0.7-0.2-1-0.4c-0.4-0.1-0.7-0.3-1-0.4
		c0.9-1.3,1.1-2,0.5-2.2c-0.2,0.2-0.3,0.4-0.2,0.7s0,0.4-0.2,0.5c-0.1,0-0.4,0.2-0.9,0.5c-0.5,0.3-0.8,0.3-1.2,0.1
		c-0.7,0.8-1.2,1.7-1.6,2.6s-0.8,1.6-1.5,2c-0.9,0.5-1.7,0.6-2.2,0.4c-0.5-0.2-1-0.5-1.6-0.9c-0.5-0.4-1-0.8-1.5-1.2
		s-1.1-0.7-1.7-0.9c-1.7-1.3-2.3-3.5-1.9-6.6c0.4-3.1,0.8-6.1,1.3-8.9c0.3-0.5,0.5-0.9,0.5-1.3c0-0.4,0.1-0.8,0.3-1.5
		c0.4-1.6,0.9-3.4,1.3-5.2c0.5-1.8,1-3.5,1.7-5.2c0.7-3.9,1.7-7.6,2.8-11.2c1.1-3.6,2.3-7.4,3.7-11.4c1.5-4.6,2.8-9.2,4-13.9
		c1.2-4.7,2.5-9.2,3.7-13.4c1.5-3.8,2.8-7.6,3.9-11.2s2.3-7.4,3.4-11.4c0-1.4,0.3-2.8,0.7-4c0.4-1.2,0.8-2.6,1.1-4.1
		c0.6-0.8,1-1.5,1.2-2.1c0.2-0.6,0.4-1.4,0.3-2.2c0.2-0.5,0.2-1,0-1.6c-0.2-0.6,0.1-1.1,0.7-1.3c0.7,0.5,1.4,0.6,2.3,0.4
		s1.8-0.3,2.8-0.4c1-0.1,1.9-0.1,2.7-0.1c0.8,0.1,1.4,0.6,1.9,1.5c-0.5,1.1-0.8,2.5-0.8,4.1c0,1.6-0.2,3.3-0.6,4.9l-1.2,5.2
		c-0.3,1.4-0.5,2.6-0.6,3.7s-0.3,2.2-0.7,3.2l-1,2.6c-0.6,0.8-0.8,1.8-0.5,2.9c-0.5,1.1-1,2.1-1.5,3s-0.8,1.8-1.1,2.9
		c-0.5,2.1-0.9,4.1-1.3,5.9c-0.4,1.9-0.8,3.6-1.4,5.3c-0.4,1.6-1,3.4-1.7,5.4c-0.7,1.9-1.3,3.7-1.7,5.4c0,0.7-0.2,1.5-0.7,2.3
		c-0.4,0.8-0.8,1.7-1,2.8c0.1,0.4,0.1,0.9,0,1.5c0,0.6-0.2,1.1-0.4,1.6c-1.3,4.1-2.6,8.3-4,12.6c-1.4,4.3-2.7,8.7-3.9,13
		c1-0.6,2-1.4,2.9-2.5c0.9-1,1.8-2.2,2.7-3.5c3.7-3.5,7.3-7.1,11-10.7c3.7-3.6,7.8-6.7,12.5-9.4c0.8-0.4,1.7-0.8,2.8-1.1
		c1.1-0.3,2-0.8,2.8-1.4c0.9-0.4,2-0.9,3.1-1.3c1.1-0.4,2.3-0.4,3.5-0.1l3.5,1.3c2.1,0.5,3.8,1.5,5,3c1.2,1.9,1.7,4.1,1.6,6.4
		s-0.7,4.7-1.6,7.1c-0.9,2.4-2.1,4.7-3.6,6.9c-1.5,2.2-2.8,4.1-4.1,5.8c-1.4,2.7-3,5.1-4.7,7.3c-1.8,2.2-3.5,4.2-5.1,6.1L442.4,148z
		 M421.1,152.9c0.1-0.2,0.2-0.3,0.2-0.4c0-0.1,0-0.2,0.2-0.4c0-0.1,0-0.3,0.1-0.5c1.5-0.5,2.9-1,4.2-1.5c1.3-0.5,2.3-1.4,2.9-2.8
		c0.8-0.6,1.7-1.3,2.7-2.3c1-1,1.9-2.1,2.5-3.4c0.5-0.2,1-0.5,1.5-0.9s0.9-1,1.2-1.9c1.4-1,2.5-2.3,3.3-3.9c0.8-1.6,1.8-3.1,3-4.5
		c0.5-1.1,1.1-2,1.9-2.8c0.7-0.8,1.4-1.7,2.1-2.8c1.1-1.8,2.3-4,3.5-6.5c1.2-2.6,1.8-4.9,1.9-6.9c-0.8-0.1-1.3-0.1-1.7,0.2
		c-0.4,0.3-0.9,0.4-1.6,0.4c-2.5,2-4.8,3.8-7,5.2c-2.2,1.5-4.4,3.2-6.8,5.2c-2.5,2-4.9,4.6-7.1,7.7c-2.2,3.1-4.6,5.9-7,8.3
		c-0.2,0.6-0.4,1-0.7,1.3s-0.6,0.6-0.8,1.1c-0.2,0.8-0.3,1.5-0.6,2.1c-0.2,0.7-0.4,1.4-0.6,2.1c0.2,0.5,0.3,1.3,0.1,2.2
		c-0.2,1-0.4,1.7-0.6,2.1c0.7,0,0.8,0.5,0.4,1.5c-0.5,1-0.8,2-0.9,2.8c0.3,0.4,0.7,0.4,1,0.1s0.6-0.4,0.9-0.5c0.1,0,0.5,0,1.1,0.2
		c0.6,0.2,0.8-0.1,0.7-0.8c0.3,0.2,0.9,0.2,1.8-0.2c0.9-0.4,1.6-1,2.2-1.8c-0.7,0.1-1.3,0.5-1.9,1
		C422.5,152.6,421.8,152.9,421.1,152.9z"/>
	<path class="st0" d="M545.1,106.4c0.3,0.4,0,1.1-1.1,2.3c-1.1,1.2-2.1,2.5-3.2,4c-0.3,0.2-0.8,0.8-1.6,1.8c-0.8,1-1.3,1.7-1.4,2
		l-1.1,1.3l-3,3.3l-1.5,1.3l-2.6,2.4c-2.1,2-4,3.8-5.9,5.6c-1.8,1.8-4.2,3.5-7,5.1c-0.1,0-0.4,0.1-0.7,0.3c-0.3,0.2-0.7,0.4-1.1,0.6
		c-0.5,0.2-1,0.5-1.4,0.7c-0.6,0.1-1,0.3-1.4,0.6s-0.9,0.5-1.6,0.6c-0.1,0-0.1-0.1,0.1-0.5c-0.7,0.3-1.2,0.5-1.6,0.6
		c-0.4,0.1-0.8,0.5-1.3,1c-0.5-0.2-0.8-0.1-1.1,0.3c-0.3,0.4-0.7,0.5-1.3,0.4c-0.2,0.5-0.6,0.7-1.2,0.6c-0.6,0-1,0.2-1.4,0.7
		c-0.3-0.1-0.4-0.2-0.3-0.3c0.1-0.1,0-0.2-0.3-0.3c-0.4,0.2-0.9,0.3-1.5,0.4c-0.6,0-1.3,0.3-1.9,0.9c-0.5-0.2-0.8-0.2-1,0
		c-0.2,0.2-0.7,0.2-1.4,0l-0.1,0.5c-2.2,0-3.7,0.1-4.7,0.4c-0.6,0-1-0.1-1.3-0.2s-0.6,0-0.8,0.4c-1.6,0-3-0.1-4.4-0.2
		c-1.4-0.1-2.9-0.4-4.5-0.8c-1.8-0.4-3.4-1.1-4.9-2.2s-2.9-2.3-4.3-3.6c-0.7-0.9-1.3-1.8-1.8-2.7s-0.9-1.8-1.3-2.5
		c-0.5-1.1-0.8-2-1-2.9c-0.2-0.9-0.2-1.9-0.1-3.1c0-1.6,0.1-3.7,0.2-6.5c0.2-2.7,0.8-5.2,2-7.4l3.8-6.3l2.4-4.7c1-1,1.7-1.9,2.3-2.6
		c0.6-0.7,1.3-1.7,2-2.9c0.6-0.8,1.3-1.6,2.2-2.2c0.9-0.7,1.6-1.4,2.2-2.2c1.1-1.1,1.9-2,2.5-2.8c0.8-0.9,1.8-1.7,2.8-2.5
		c1-0.8,2-1.5,2.9-1.9c0.4-0.4,0.9-0.6,1.6-0.7c0.7-0.1,1.2-0.4,1.6-0.7c0.2-0.2,0.5-0.4,0.8-0.6c0.2-0.2,0.6-0.3,1-0.4
		c0.9,1,2,1.8,3.3,2.3s2.4,1.3,3.3,2.3c1,0.1,1.7,0.5,1.9,1.2c0.3,0.7,0.8,1.2,1.6,1.6c0.5,1.1,0.7,2,0.6,2.9s-0.3,1.8-0.7,2.9
		c-0.2,0.3-0.3,0.6-0.3,0.9s0,0.6-0.1,0.9c-0.2,0.8-0.5,1.4-1,2c-0.5,0.6-1,1.3-1.5,2.1c-0.2,0.3-0.4,0.8-0.5,1.4
		c-0.1,0.6-0.2,1.2-0.4,1.8c-0.5,0.7-1,1.5-1.7,2.4s-1.3,1.9-1.8,2.9c-0.5,1.1-1.3,1.9-2.2,2.6c-1,0.6-1.7,1.4-2.3,2.3
		c-0.4,0.4-0.5,0.8-0.4,1.4c-0.9,1.3-2,2.5-3.3,3.7c-1.3,1.2-2.4,2.4-3.3,3.7c-2.2,0.8-4,2-5.7,3.6c-1.7,1.6-3.8,2.3-6.4,2.2
		c-0.2,0.2-0.3,0.3,0,0.4c0.2,0.1,0.6,0.1,1,0c-0.3,0.8-0.2,1.3,0.2,1.6c0.4,0.3,0.7,0.6,0.9,1c1.3,0.9,2.8,1.7,4.5,2.4
		c1.7,0.7,3.5,1,5.3,1c5.4,0.6,10.3-0.2,14.6-2.4c1.5-0.5,2.8-1.1,4.1-1.6c1.3-0.5,2.7-1.3,4.4-2.3c2.1-1.2,3.9-2.5,5.5-3.8l2.5-1.7
		c0.4-0.4,0.6-0.5,0.7-0.4c0.1,0.1,0.1,0.1,0,0.2c-0.1,0.1-0.1,0.2-0.1,0.2s0.2-0.1,0.6-0.4l5-3.5c1.3-1.4,2.4-2.5,3.3-3.3
		c0.9-0.8,2.1-2.1,3.8-4c0.1-0.2,0.5-0.6,1.1-1.2c0.6-0.6,1.2-1.3,1.9-1.9c0.7-0.7,1.3-1.3,1.9-1.9s1-1,1.3-1.2l1.7-2.4
		c1.5-1.4,2.7-2.6,3.8-3.6c1-1,1.8-1.6,2.3-2c0.5,0.3,0.9,0.9,1.2,1.6c0.3,0.7,0.6,1.1,1,1c-0.6,1.4-1,2.4-1.3,3.1s-0.4,1.2-0.6,1.5
		c-0.2,0.3-0.4,0.6-0.7,0.9C546.3,105.2,545.8,105.7,545.1,106.4z M496.8,91c-0.4,0.4-0.8,0.8-1.3,1.3c-0.5,0.5-0.9,0.9-1.3,1.3
		c-0.6,0.1-0.9,0.3-1,0.6c-0.2,0.2-0.5,0.4-0.7,0.6c-0.2,0.2-0.4,0.4-0.7,0.6l-1.4,1.6c-0.6,0.8-1.2,1.5-1.8,1.9
		c-0.6,0.5-1.2,1.1-1.8,1.7c-0.6,1.3-1.3,2.3-1.9,3c-0.7,0.8-1.3,1.8-1.9,3c-1.3,1.2-2.4,2.6-3.1,4.2c-1.2,1.8-2.4,3.5-3.4,5.2
		c-1,1.7-1.7,3.4-2.1,5c2.5-1.3,4.7-3.1,6.8-5.3c2-2.2,4.2-4.5,6.5-7c0.7-0.8,1.4-1.7,2.1-2.5c0.7-0.8,1.3-1.8,1.8-2.9
		c1.1-0.9,2.3-2.3,3.7-4.2c1.3-1.9,2.4-3.7,3.2-5.4c0.2-0.7,0.3-1.4,0.6-2c0.2-0.6,0.2-1.2-0.2-1.7c-0.3,0.1-0.7,0.2-1.1,0.3
		C497.4,90.4,497,90.7,496.8,91z"/>
	<path class="st0" d="M607.7,97.7c0,0.3,0,0.5-0.2,0.7c-0.2,0.2-0.1,0.2,0.1,0.2c-0.5,1.1-1.4,2.6-2.5,4.4c-1.2,1.9-1.9,3.2-2.2,4.1
		c-0.3,0.1-0.8,0.3-1.6,0.7c0.2-0.5,0.6-1,1.1-1.5s1-1,1.4-1.3c0-0.3,0-0.8,0.2-1.4c0.2-0.7,0.3-1.3,0.5-1.9
		c-0.3,0.2-0.5,0.7-0.8,1.6c-0.3,0.9-0.5,1.5-0.7,1.9c-0.7,1-1.4,1.7-2.2,2.2s-1.4,1.4-1.9,2.6c-1.3,0.8-2.2,2.1-2.9,3.7
		c-0.6,1.7-1.7,2.8-3.2,3.4c-0.1,0.4-0.2,0.7-0.3,0.8c-0.1,0.1-0.3,0.3-0.5,0.6c-0.2-0.2-0.3-0.5-0.2-0.7s0-0.3-0.2-0.3l-1.6,2
		c-0.6,0.4-1.2,0.9-1.6,1.5c-0.4,0.6-1,0.9-1.6,1l0.2-0.2c-0.5,0.4-0.8,0.7-0.9,0.9s-0.2,0.4-0.2,0.6s-0.1,0.3-0.2,0.6
		c-0.1,0.2-0.4,0.5-1,0.7c-0.3,0-0.4,0-0.5-0.1c-0.5,0.2-1,0.6-1.4,1.2c-0.4,0.6-1,0.9-1.6,1c0-0.3,0.1-0.4,0.3-0.5
		c-0.9,0-1.4,0.3-1.5,0.9l-0.4,0.1l-4.9,3.9c-1,0.6-2.2,1.2-3.5,1.9c-1.3,0.7-2.5,1.2-3.6,1.5c-1.9,1.3-4.1,2-6.5,1.9
		s-5-0.4-7.5-1.1c-1.8-0.7-3.4-1.2-4.8-1.5c-1.3-0.3-2.4-0.8-3.3-1.5c-0.8-0.6-1.5-1.5-1.9-2.4c-0.5-1-0.9-2.5-1.2-4.4
		c0-0.3,0-0.5,0.1-0.6c0.1-0.1,0.2-0.3,0.1-0.6c-0.6-2.3-0.8-5.1-0.7-8.5c0.1-3.3,0.3-6.4,0.5-9.3c0.2-0.7,0.2-1.4,0.1-1.9
		c-0.1-0.6,0-1.1,0.3-1.8c0.2-3,0.5-6.2,1.1-9.5c0.5-3.3,1.2-6.6,1.9-9.7c0.2-0.7,0.2-1.1,0.2-1.2c0-0.1-0.1-0.1-0.2-0.1l0.6-1.6
		c0.7-2.4,1.6-5.4,2.6-8.8c1-3.5,1.7-6.5,1.9-9.1c-0.5,0.5-0.7,0.7-0.6,0.4c0.1-0.2-0.2-0.3-0.9-0.2c-0.9,0.4-1.8,0.9-2.6,1.4
		c-0.8,0.5-1.8,0.9-2.7,1c-1.1,0.5-2,0.9-2.8,1.4c-0.8,0.4-1.7,0.8-2.6,1.1c-1.6,0.6-2.6,0.9-3,1c-0.4,0.1-0.7,0.1-0.7,0.1
		c-0.1,0-0.3,0.1-0.6,0.3c-0.3,0.2-1.3,0.7-2.9,1.4c-0.9-0.1-1.9,0.2-2.9,1s-2.2,1.2-3.3,1.2c-0.3-0.1-0.5-0.2-0.6-0.2
		c-0.1-0.1-0.3-0.1-0.5,0c-1,0.6-1.9,0.8-2.6,0.6c-0.7-0.2-1.3-0.7-1.8-1.3c0.1-0.9-0.1-1.6-0.8-2.2c-0.7-0.6-1.1-1.2-1.2-1.9
		l0.9,0.5c2.8-1.1,5.2-2.2,7.1-3.3c2-1.1,4.1-2.3,6.4-3.6s5.2-2.6,8.5-4.1c3.3-1.4,7.8-3,13.3-4.8c1.8-6.2,3.7-11.9,5.7-17.1
		s4.2-10.6,6.5-16.2l-0.2-1c0.2-0.3,0.5-0.4,0.9-0.3c0.4,0.1,0.7,0.1,0.9-0.3c-0.1,0.4,0.1,0.7,0.4,0.7c0.4,0,0.6,0.1,0.6,0.4
		c0.7,0,1.6,0.1,2.7,0.4c1,0.2,2,0.6,3,1.2c1,0.6,1.7,1.2,2.3,1.9s0.7,1.5,0.4,2.4l-1.6,1.8c-0.1,0.3-0.1,0.6-0.1,0.9
		c-0.2,1.3-0.7,2.6-1.4,3.8c-0.7,1.2-1.2,2.4-1.6,3.6c-0.5,1.2-0.8,2.3-1,3.2c-0.2,0.9-0.5,2-1,3.4c-0.5,1.5-1,2.6-1.8,3.4
		c-0.7,0.8-1.1,1.9-1.1,3.5c2.3-0.7,4.5-1.3,6.5-1.8c2.1-0.5,4.3-1,6.6-1.4c2.1-0.9,4-1.6,5.7-1.9s2.7-0.5,3.1-0.6
		c0.7-0.1,1.1-0.2,1.3-0.2c0.2,0,0.3-0.1,0.4-0.1c0.1,0,0.2,0,0.3-0.1c0.1,0,0.5-0.2,1-0.4c1.3,0.1,2.5-0.2,3.6-0.9s2.4-0.9,3.8-0.7
		c0.4-0.1,0.9-0.1,1.4,0s1,0,1.6-0.3c-0.1,0.2,0,0.1,0.2,0c0.2-0.2,0.5-0.3,0.8-0.4l-0.2,0.2c0.9,0.1,1.5,0,1.9-0.3
		c-0.5-0.2-0.7-0.3-0.8-0.4c-0.1-0.1,0.5,0,1.7,0.2c1.1-0.2,2.5-0.3,4.2-0.4c1.7-0.1,3.2,0.4,4.5,1.4c0.2,0.1,0.2,0.4,0.2,0.7
		s0.1,0.7,0.3,0.9c-0.1,0.2-0.2,0.3-0.4,0.3c-0.1,0-0.2,0.2-0.1,0.4c0.2,0.1,0.3,0.2,0.4,0.3c0.1,0.1,0.3,0.1,0.8,0.2
		c-0.2,0.3-0.6,0.5-1.2,0.6c0.2,0.5,0.7,0.9,1.5,1.2c-0.2,0.3-0.5,0.5-0.9,0.6c-0.3,0.1-0.6,0.2-0.7,0.6c-0.3,0.1-0.6,0-0.9-0.1
		c-1,0.3-1.8,0.5-2.6,0.5s-1.7,0.4-2.7,1.1c-0.8-0.3-1.2-0.4-1.3-0.2c-0.1,0.2-0.4,0.2-0.8,0.1c0-0.3,0-0.4,0.2-0.4
		c0.2,0.1,0.2-0.1,0.2-0.4c-0.5,0.1-0.9,0.3-1,0.5s-0.2,0.4-0.2,0.6c0,0.1-0.1,0.2-0.3,0.2c-0.2,0-0.5-0.2-1-0.6l-0.8,0.6l-0.2,0.2
		l-0.2,0c-0.3,0.1-0.4,0-0.3-0.1c0.1-0.1,0-0.2-0.2-0.3c-0.4,0.4-0.5,0.6-0.5,0.7c-0.4-0.5-0.9-0.5-1.6,0c-0.7,0.5-0.9,0.3-0.6-0.4
		c-0.3,0.1-0.4,0.3-0.4,0.8c0,0.5-0.4,0.6-1.1,0.3c0.2-0.6,0.3-0.9,0.4-0.8c0.1,0.1,0.1-0.1,0-0.3c-0.1,0-0.3,0.1-0.6,0.3
		c-0.3,0.2-0.4,0.5-0.5,0.9l-0.1-0.6c-0.6,0.1-0.8,0.4-0.7,1l-0.1-0.6c-0.5-0.2-0.8-0.2-0.9-0.1c-0.1,0.2-0.4,0.3-0.8,0.4
		c-0.3-0.2-0.3-0.3-0.1-0.3s0.5-0.1,0.8-0.5c-0.3,0.1-0.6,0.1-1,0.2c-0.4,0.1-0.7,0.3-0.8,0.6c-0.9-0.4-1.6-0.3-2.1,0.4
		c0.2,0.2,0.4,0.2,0.7-0.1c0.3-0.3,0.5-0.4,0.7-0.1c-0.1,0.2-0.4,0.4-0.8,0.6c-0.4,0.2-0.8,0.4-1.1,0.5c-0.3,0.1-0.6,0.2-0.7,0.1
		c-0.2,0-0.1-0.2,0.1-0.6l-0.8,0.1l0-0.2c-0.1,0-0.2,0.1-0.2,0.2l0-0.2c-0.1,0-0.3,0-0.3-0.1c-0.1-0.1-0.2,0-0.3,0.3
		c0.1,0,0.2,0,0.2,0.1c0,0.1,0.1,0.1,0.2,0.1c-0.5,0.4-0.7,0.7-0.7,0.9s-0.1,0.1-0.5-0.2c-0.1-0.6-0.6-0.7-1.4-0.5s-1.5,0.5-2.2,0.9
		l-0.1-0.4c-0.4,0.4-0.8,0.7-1.4,1.1c-0.6,0.4-1.2,0.4-1.8-0.1c0.2-0.2,0.5-0.3,0.6-0.3c0.1,0,0.3-0.1,0.4-0.3
		c0-0.3-0.2-0.4-0.3-0.4c-0.1,0-0.2,0-0.2-0.2c-0.3,0.1-0.5,0.2-0.6,0.3c-0.1,0.2-0.3,0.3-0.5,0.5c-0.1,0-0.2-0.1-0.3-0.4
		c0-0.1,0-0.2,0.2-0.2c-0.7,0.1-1,0.1-0.9-0.1c-0.3,0.1-0.4,0.4-0.3,0.9s0,1-0.2,1.3c-0.7,0.1-1.3,0.3-1.8,0.4
		c-0.5,0.2-1.2,0.3-2.2,0.5c0-0.3,0-0.4,0.3-0.4c0.2,0,0.3-0.1,0.3-0.4c-0.1,0-0.2,0-0.2-0.1c0-0.1-0.1-0.1-0.2-0.1l-0.2,0
		c-0.3,0.1-0.5,0.1-0.8,0.2c-0.3,0.1-0.5,0.2-0.8,0.2c-0.2,0.8-0.5,1.1-1,0.9c-0.5-0.1-0.9,0-1.1,0.3l0-0.2
		c-0.4,0.1-0.7,0.3-0.8,0.6c0.4,0.1,0.7-0.1,0.8-0.4c0.2,0.3,0.3,0.3,0.3,0.1c0-0.1,0.1-0.1,0.1,0.2s0,0.4-0.2,0.5
		c-0.2,0-0.4,0.2-0.7,0.6c-0.4,0.1-0.8,0-1.1-0.1c-0.3-0.2-0.7-0.1-1,0.3c-0.7,0.1-1.5,0.3-2.3,0.6c-0.9,0.3-1.7,0.6-2.3,0.9
		c-0.5,0.4-0.8,0.8-0.9,1.1c-0.1,0.4-0.2,0.9-0.4,1.5c-0.5,2.7-1.4,5.9-2.6,9.7c-1.2,3.8-2.1,7.3-2.6,10.6c-0.2,1.3-0.3,2.3-0.5,2.9
		s-0.2,1.1-0.4,1.5c-0.2,0.4-0.3,0.9-0.4,1.5c-0.1,0.6-0.2,1.6-0.4,3.1c-1.1,2.8-1.7,6.1-1.9,9.9c-0.2,3.8-0.3,7.7-0.3,11.5
		c-0.1,1.3-0.2,2.6-0.4,3.9c-0.2,1.3-0.2,2.7-0.1,4.1c0.2,2.1,0.2,4.1-0.1,5.9c-0.3,1.9,0.3,3.6,1.7,5.4c0.3,0.1,0.4,0.1,0.2,0.1
		c-0.2,0,0-0.1,0.6-0.2c1.1-0.2,2.5-0.6,4.1-1.3c1.6-0.6,3-1.4,4.1-2.1c1.5-0.7,2.9-1.5,4.4-2.4c1.5-0.9,2.9-1.7,4.2-2.4
		c0.2-0.3,0.4-0.5,0.5-0.4s0.1,0,0-0.3c0.4-0.2,0.8-0.4,1.2-0.5c0.4-0.1,0.6-0.5,0.7-1.1c0.8-0.4,1.4-0.8,1.8-1.1
		c0.5-0.3,0.8-0.6,1.1-0.9s0.6-0.6,1-0.9s1-0.6,1.7-1.1l-0.2-0.8c0.6,0.3,1.4-0.2,2.3-1.7c0.1,0,0.3,0,0.5,0.1
		c1.1-1.1,2.4-2.2,3.8-3.5c1.4-1.2,2.7-2.5,4-3.7c0.7-0.3,1.7-1.1,3-2.7c1.3-1.5,2.6-3.2,3.9-5c1.3-1.8,2.5-3.5,3.5-5
		s1.6-2.5,1.9-2.8c0.2,0.1,0.3,0.2,0.5,0.1c0-0.9,0-1.4,0-1.5s0.1-0.2,0.2-0.2s0.1-0.1,0.2-0.1s0.2-0.4,0.6-1.1
		c-0.1-0.4,0-0.6,0.1-0.7c0.4-0.4,0.6-0.6,0.7-0.8s0.3-0.5,0.5-0.9c0.9,0,1.3-0.6,1.4-1.8c1,0.1,1.7,0.3,2.1,0.6
		c0.4,0.3,0.7,0.3,1-0.1c0,0.3,0.2,0.4,0.5,0.4c0.3,0,0.6,0,0.8-0.1c0,0.3,0,0.4,0,0.4c-0.1,0-0.1,0.1-0.1,0.2
		c0.3,0.1,0.2,0.3-0.4,0.7c-0.6,0.4-0.5,0.6,0.2,0.6c0,0.3,0,0.7-0.2,1.3c0.1,0,0.4,0.1,0.7,0.5c-0.3,0.1-1.2,1.9-2.7,5.4l0.2,0
		c-0.1,0.2-0.2,0.3-0.4,0.3c-0.5,0.7-0.7,0.9-0.7,0.8l-1.1,1.3l-0.1-0.4c-0.2,0.3-0.3,0.6-0.3,0.8c0,0.2-0.1,0.4-0.3,0.6
		c-0.1,0.2-0.1,0.4-0.1,0.7l0-0.2C608,97.8,607.9,97.7,607.7,97.7z M569.3,56.1c0-0.1,0-0.2,0.2-0.2c0.1,0,0.2-0.1,0.2-0.2
		C569.1,55.4,569,55.6,569.3,56.1z M569.9,55.8c0.3,0.2,0.5,0.3,0.7,0.1c0.1-0.2,0.2-0.3,0.4-0.3c0-0.1,0-0.2,0.2-0.4
		c0.1-0.1,0-0.2-0.3-0.5c0,0.3-0.1,0.5-0.3,0.6C570.2,55.5,570,55.6,569.9,55.8z M576.1,54.2c-0.3-0.1-0.3-0.2,0-0.2L576.1,54.2z
		 M576.1,54l0.3-0.5C576.5,53.8,576.3,54,576.1,54z M595.9,113c0.3-0.5,0.7-0.9,1-1.2c0.3-0.3,0.5-0.8,0.7-1.4
		c-0.4,0.4-0.8,0.8-1.4,1.3C595.6,112.1,595.5,112.6,595.9,113z M586.2,52c-0.5,0.2-0.8,0.3-0.7,0.2c0.1-0.1,0.2-0.3,0.4-0.6
		C586,51.9,586.1,52,586.2,52z M597.5,106.7c0.3,0.1,0.6,0,0.8-0.4s0.2-0.6,0.1-0.9c-0.2,0.3-0.4,0.6-0.4,0.7
		C597.9,106.3,597.8,106.5,597.5,106.7z M598.1,108.9c0.6,0,0.9-0.1,1-0.4s0.2-0.6,0.5-0.9c-0.1-0.6-0.1-0.9,0-1.1
		c-0.3,0.1-0.4,0.3-0.3,0.7l0.3,0.4c-0.2,0.2-0.5,0.4-0.7,0.7C598.6,108.5,598.4,108.7,598.1,108.9z M598.3,109.7
		c0.2,0.3,0.4,0.2,0.8,0c0.3-0.3,0.3-0.5,0-0.8c-0.1,0.3-0.2,0.4-0.5,0.4C598.3,109.3,598.2,109.5,598.3,109.7z M600.5,110.2
		c0.3-0.8,0.7-1.3,1.1-1.6s0.9-0.7,1.4-1.2l0,0.2c-0.5,0.4-1,0.8-1.4,1.3C601.3,109.4,600.9,109.8,600.5,110.2z M600.4,105.7
		l-0.1,0.4C600.4,106.3,600.4,106.1,600.4,105.7z M590.9,50.7l-0.2-0.2l0.2,0c0-0.1,0-0.1,0.2,0c0.3,0.4,0.4,0.5,0.2,0.5
		C591.1,50.9,591,50.8,590.9,50.7z M603.2,107.1l-0.2,0.2l0-0.2L603.2,107.1z M604.1,105c-0.3-0.7-0.1-1.3,0.5-2
		c0.6-0.7,0.9-1.2,0.8-1.4c0.3,0.2,0.2,0.8-0.2,1.6C604.7,104.1,604.3,104.7,604.1,105z M610.9,92.7c-0.1,0,0-0.2,0.3-0.7l0-0.2
		l-0.4,0.3c-0.2,0.5-0.5,0.9-0.7,1.3c-0.3,0.4-0.5,0.8-0.8,1.1l-0.1-0.6c-0.4,0.9-0.5,1.7-0.2,2.2l0.3-0.5l-0.2,0l0.1-0.9
		c0.3-0.1,0.5,0,0.7,0.1c-0.1-0.4,0.1-0.8,0.7-1.2l0.4-1.1L610.9,92.7z M609.6,95c-0.3-0.1-0.4,0-0.3,0.2c0.1,0.2,0.1,0.3,0,0.3
		L609.6,95z M603.9,45.2c-0.2,0.3-0.5,0.4-0.9,0.3c-0.4-0.1-0.7-0.1-0.9,0.3c0.3,0.1,0.7,0.1,1.3,0.1
		C603.9,45.8,604.1,45.6,603.9,45.2z M611,93.1c0,0.1,0,0.2-0.2,0.2C610.9,93.3,611,93.2,611,93.1z M611,93.1
		c0.2-0.3,0.3-0.6,0.3-0.7l-0.3,0.5L611,93.1z"/>
	<path class="st0" d="M627.7,0.5c0.3,0.2,0.4,0.3,0.3,0.1c-0.1-0.1,0.2-0.2,0.9-0.2c0.3-0.1,0.5-0.1,0.5,0c0.1,0.1,0.3,0.1,0.5,0
		c0.3,0.1,0.6,0,0.8-0.1c0.2-0.2,0.5-0.3,0.8-0.4c0.4-0.1,0.8,0,1.1,0.2c0.3,0.2,0.7,0.4,1.2,0.4l0.6-0.1l0.7,0.5
		c0.3,0.2,0.7,0.4,1.2,0.4s0.8,0.2,0.9,0.5c0.8,0.6,1.4,1.3,1.7,2.3c0.3,0.9,0.4,2.1,0.4,3.4c-0.2,0.3-0.3,0.6-0.3,0.8
		c0,0.2,0,0.5-0.1,0.8c-0.1,0.3-0.2,0.5-0.4,0.6c-0.2,0.1-0.3,0.3-0.4,0.6c-0.5,1-1,2-1.4,3c-0.4,1.1-0.7,2.1-0.9,3.2l-1.5,2.4
		l0.3,1.7c-0.3,0.2-0.4,0.3-0.5,0.2s-0.2,0-0.5,0.2s-0.3,0.4-0.3,0.7s0,0.6-0.1,0.9c-0.6,1.7-1,3.4-1.4,5.2
		c-0.4,1.8-0.6,3.5-0.6,5.3c-0.9,0.4-1.3,1-1.2,1.7c-0.1,0.2-0.1,0.6,0,1.3c-0.2,0.6-0.4,1.2-0.5,1.8c-0.2,0.6-0.3,1.3-0.3,2
		c-0.3,0.8-0.5,1.6-0.8,2.4c-0.2,0.8-0.4,1.7-0.5,2.6l-0.6,1.6c0,0.3,0,0.5-0.1,0.7c-0.1,0.2-0.2,0.4-0.1,0.7l-5,20.2l-0.7,3.4
		l-0.7,2.1l-0.7,2.1c0,0.1,0,0.2-0.2,0.1c-0.2,0-0.2,0-0.2,0.1c0.1,2.7-0.2,5.2-0.9,7.5s-1.4,4.5-2.1,6.8l-2.7,9.9
		c-0.2,0.6-0.4,1.2-0.5,1.7c-0.2,0.5-0.3,1.2-0.3,1.9l-0.1,0.9l-0.6,1.4c1.2-1.9,2.6-3.9,4.1-5.9c1.5-2,3-4,4.5-6l0.8-1.6l1.2-1.5
		c1.5-1.7,3-3.5,4.3-5.3s2.7-3.5,4.1-5c1.4-1.7,2.9-3.3,4.5-4.8s3.2-3.1,4.7-4.8c0.2-0.2,0.5-0.4,0.7-0.8s0.4-0.5,0.5-0.5l1-0.2
		c0.8-0.4,1.4-0.9,1.9-1.5c0.5-0.6,1.2-1,2.1-1.4c0.6-0.4,1.2-0.5,1.6-0.4s1,0.3,1.6,0.5c0.6,0.2,1.2,0.3,1.8,0.3
		c0.6,0,1.2-0.1,1.9-0.3c0.2,0.3,0.2,0.5-0.1,0.9c0.7-0.3,1.1-0.3,1.2,0c0.1,0.3,0.3,0.6,0.7,0.9c0.4,0.5,0.5,1,0.5,1.4
		c0.2,0.5,0.3,1.5,0.3,2.9c0,1.3-0.1,2.7,0,4.1c0,1.4-0.2,2.5-0.6,3.3c0.2-0.2,0.3-0.1,0.3,0.3s-0.2,0.7-0.2,1
		c-0.2,0.5-0.3,0.8-0.2,1.1c0,0.3,0,0.6,0,1.1l0.3,2.9c0.2,2.7,0.4,5,0.7,6.9c0.3,1.9,0.8,3.8,1.8,5.6c0.2,0.5,0.6,1.4,1.2,2.6
		c0.6,1.2,1.2,1.9,1.8,2.1c0.3,0.2,0.7,0.2,1.1,0c0.4-0.2,0.9-0.4,1.4-0.5c0.5,0.2,0.9,0.3,1.4,0.2c0.5-0.1,0.9-0.2,1.3-0.2
		c2.3-0.7,4.7-2.1,7.3-4.2c2.5-2.1,4.6-3.9,6-5.3l1.2-1.5c0.2-0.3,0.3-0.5,0.3-0.6c0-0.1,0.1-0.2,0.4-0.4c0.2-0.3,0.5-0.5,0.7-0.4
		s0.5-0.1,0.7-0.2c0.5-0.1,1-0.4,1.5-0.9c0.4-0.5,0.8-0.9,1.2-1.1c0.2-0.3,0.5-0.6,0.7-0.9c0.2-0.3,0.6-0.6,1.1-1.2
		c0.5-0.5,1.1-1.2,1.9-2.1c0.8-0.9,1.8-2,3.1-3.6c0,0.1,0.1,0.1,0.2,0c0.1,0,0.3-0.3,0.5-0.9c-0.2,0.3-0.4,0.5-0.5,0.5
		c0.1-0.3,0.2-0.6,0.2-0.8c0-0.2,0.3-0.7,0.9-1.4l0.2-0.2l0.1-0.4c0.2-0.3,0.5-0.6,0.7-1s0.7-0.6,1.3-0.9c0.2-0.6,0.7-1.1,1.7-1.4
		c0.3-0.5,0.5-0.9,0.4-1.4c0.9-0.4,1.7-0.7,2.2-0.8c0.5-0.1,1-0.6,1.4-1.6c0-0.3,0-0.4,0.2-0.2c0.2,0.1,0.2,0,0.2-0.2l0.2-0.2l0-0.2
		c0.2-0.3,0.4-0.4,0.6-0.2s0.3,0.2,0.4,0c0-0.3-0.2-0.4-0.4-0.4s-0.3-0.1-0.2-0.4l0.4-0.1c0.1-0.2,0.1-0.4,0-0.8
		c-0.1-0.3,0,0,0.5,0.9c1.6-0.9,2.6-0.8,3.1,0.3l0,0.2c0.1,0.7,0,1.3-0.2,1.8c-0.3,0.5-0.5,0.9-0.7,1.4l0.1,0.4
		c0,0.3-0.1,0.8-0.4,1.5c-0.3,0.7-0.6,1.1-0.8,1.3c0,0.7-0.2,1.2-0.4,1.4s-0.5,0.4-0.7,0.8c-0.2,0.3-0.4,0.7-0.6,1.1
		c-0.2,0.4-0.5,0.8-1.2,1.2c-0.9,1.2-1.5,1.9-1.7,2.4c-0.2,0.4-0.4,0.7-0.6,1c-0.2,0.2-0.4,0.6-0.8,1c-0.3,0.4-1,1.2-1.9,2.4
		c-0.3-0.2-0.6,0-0.8,0.7c-0.2,0.7-0.5,1.2-0.7,1.5c-1,0.9-1.8,1.7-2.4,2.4c-0.6,0.7-1.2,1.4-1.7,2c-0.5,0.7-1.1,1.3-1.7,1.9
		c-0.6,0.6-1.3,1.3-2.2,2c-0.3-0.1-0.5,0.1-0.7,0.6c-0.1,0.4-0.3,0.8-0.5,1.2l-0.6,0.1l-0.1-0.6c-0.1,0.2-0.2,0.2-0.4,0.2
		c-0.2,0-0.2,0.1-0.2,0.4c-0.1,0.2,0,0.3,0.3,0.4c0.3,0.1,0.4,0.4,0.4,0.8l-0.4,0.1c-0.3-0.2-0.4-0.4-0.3-0.6
		c0.1-0.2,0.2-0.3,0.1-0.4c-0.6,0.4-1,0.8-1.2,1.2c-0.2,0.4-0.4,0.8-0.8,1.1c0.3-0.1,0.5-0.2,0.7-0.4c0.2-0.2,0.3-0.2,0.3,0.1
		s0,0.6-0.2,1.1c-0.2,0.3-0.4,0.6-0.5,0.7c-0.1,0.2-0.4,0.4-0.8,0.6l-0.1-0.6c-0.7,0-1.2,0.4-1.4,1.1c-0.2,0.8-0.8,1.2-1.6,1.4
		c-0.1,0-0.2,0,0-0.1c0.1-0.1,0-0.2-0.3-0.5c-0.2,0.2-0.5,0.3-0.8,0.4c-0.3,0.1-0.5,0.2-0.8,0.6c0.2,0.3,0.3,0.3,0.5,0.1
		c0.1-0.2,0.2-0.1,0.2,0.2c-0.5,0.6-1.2,1.3-2.3,2s-2.3,1.4-3.7,2c-1.4,0.6-2.7,1.1-4,1.5c-1.3,0.4-2.3,0.5-3.1,0.3
		c-0.1,0-0.2,0-0.3-0.1c-0.1-0.1-0.3-0.1-0.5,0c-0.6,0-1.2,0-1.9,0.1c-1.9,0-3.6-0.1-5.1-0.5c-1.6-0.4-3-0.9-4.5-1.5
		c0,0.1,0.2,0.1,0.4-0.3c0.1-0.3,0-0.5-0.3-0.7c-0.3-0.2-0.5,0-0.6,0.4c-0.8-0.4-1.5-1.1-2.1-2c-0.6-0.9-1.3-1.6-2.1-2.2
		c-0.2-1-0.5-1.5-1.1-1.5c-1.4-3-2.3-6.8-2.8-11.2c-0.4-4.4-0.5-8.8-0.3-13.1c-1.1,0.5-1.8,1.1-2.2,1.8c-0.5,0.7-1,1.5-1.5,2.3
		c-0.5,0.6-1,1.1-1.5,1.3c-0.2,0.3-0.5,0.7-0.9,1.1s-0.6,0.9-0.8,1.3c-3.8,5.7-7.9,11.4-12.2,17c-4.3,5.6-7.9,11.7-10.9,18.1
		l-2.1,1.7c-0.2,0.3-0.4,0.6-0.5,0.8c-0.1,0.2-0.3,0.4-0.5,0.6c-0.5,0.2-1.1,0.4-1.7,0.4s-1.2,0.2-1.8,0.4l-0.4,0.1
		c-0.5,0.1-0.8,0.1-0.8,0c0-0.1-0.2-0.1-0.6,0l-0.4-0.8c-0.7-0.2-1.5-0.2-2.2-0.1c-0.7,0-1.3,0-1.8-0.2c-0.7-0.6-1.2-1.6-1.4-3.2
		l-0.2-0.8l0.3-1.8l0.1-1.7c0-0.1,0-0.2,0.1-0.2c0.1,0,0.1-0.2,0-0.4l0.3-0.7c0.3-3.2,0.8-6.5,1.4-9.9c0.9-4.7,1.9-9.4,3.2-14.1
		c1.2-4.7,2.5-9.3,3.6-14c1.6-6.4,3.2-12.8,4.8-19c1.6-6.2,3.1-12.5,4.4-18.7c0.5-0.2,0.8-0.6,0.9-1l1.1-4.7c0.8-4,1.7-8.1,2.5-12.3
		c0.8-4.2,1.9-8.2,3.2-12.2c0.7-1.7,1.2-3.4,1.5-5C627.4,4,627.6,2.3,627.7,0.5z M654.7,110.4c0.3-0.1,0.6,0,0.9,0.2
		c0.3,0.2,0.6,0.2,0.9,0.2c0-0.3-0.3-0.5-0.8-0.6C655.2,109.9,654.9,110,654.7,110.4z M683.4,102.9c0-0.1,0-0.4,0-0.6s0-0.4-0.2-0.4
		c-0.3,0.2-0.3,0.5-0.3,0.8C683,103,683.1,103.1,683.4,102.9z M692.2,88.8c0.3,0.1,0.6-0.4,0.8-1.3s0.4-1.6,0.3-1.9
		c-0.5,0.4-0.8,0.9-0.9,1.6C692.4,87.8,692.3,88.4,692.2,88.8z M693.1,80.5c0,0.1,0,0.3-0.1,0.4c0-0.1,0-0.2,0.1-0.2
		C693.1,80.7,693.1,80.6,693.1,80.5z M696.4,84.2c0.7-0.1,1.2-0.4,1.5-0.9l-0.5-0.3c0.2,0.2,0.1,0.4-0.2,0.5s-0.5,0.2-0.5,0.3
		L696.4,84.2z"/>
</g>
</svg>
