<svg xmlns="http://www.w3.org/2000/svg" width="89.024mm" height="92.263mm" viewBox="0 0 252.352 261.533">
  <g>
    <path d="M111.144,184.356c-4.018,10.119-7.654,20.4-12.341,30.239a42.87,42.87,0,0,1-7.288,11.336A16.5,16.5,0,0,1,80.6,231.284a4.558,4.558,0,0,1-4.49-3.127,14.3,14.3,0,0,1-.621-6.961,52.91,52.91,0,0,1,2.123-9.681.936.936,0,0,0,.02-.839c-.856,1.159-1.657,2.265-2.48,3.353a35.039,35.039,0,0,1-7.516,7.667,16.944,16.944,0,0,1-8.923,3.1,5.916,5.916,0,0,1-6.092-4.669,14.383,14.383,0,0,1,.405-7.672,53.153,53.153,0,0,1,4.608-10.63c.177-.332.54-.611.392-1.149-1.322,1.124-2.577,2.261-3.906,3.3a15,15,0,0,1-6.639,3.4,5.313,5.313,0,0,1-6.4-5.221c-.134-3.268,1.054-6.189,2.435-9.034,3.229-6.651,7.586-12.56,12.2-18.293,1.09-1.355,2.214-2.683,3.379-4.091-.636-.11-.921.287-1.265.509a94.519,94.519,0,0,1-16.856,9.03,24.672,24.672,0,0,1-10.835,2.094,16.875,16.875,0,0,1-2.831-.429c-4.967-1.246-6.965-5.3-4.968-10.046a18.639,18.639,0,0,1,7.193-8.147,32.826,32.826,0,0,1,12.24-5.221,67,67,0,0,0,6.682-1.847,1.919,1.919,0,0,1,.293-.261c-.214.071-.615-.174-.977.042a73.381,73.381,0,0,1-14.458-.194,38.929,38.929,0,0,1-17.3-6.061c-2.43-1.631-4.564-5.488-2.452-8.634a10.3,10.3,0,0,1,3.452-3.058,41.7,41.7,0,0,1,8.8-3.644c7.514-2.37,15.278-3.024,23.06-3.609,5.059-.38,10.126-.445,15.2-.376.941.251,1.871-.143,2.8-.046.148,0-.075,0,.085,0a.651.651,0,0,0-.091,0c-.463-.041-.947.117-1.348-.224-11.155-.916-22.207-2.343-32.8-6.242a33.884,33.884,0,0,1-10.686-6.368,11.811,11.811,0,0,1-4.319-8.019c-.269-3.373,1.8-8.251,6.522-8.741a88.946,88.946,0,0,1,11.082-.2c8.8.183,17.388,1.85,25.953,3.672,1.479.315,2.939.715,4.411,1.064a2.152,2.152,0,0,0,1.476-.016c-.893-1.17-2.246-1.539-3.376-2.185-5.237-2.993-10.232-6.336-15.215-9.734-3.111-2.123-5.275-4.932-7.519-7.739a7.009,7.009,0,0,1-.829-7.782c.934-1.945,2.871-2.417,4.823-2.635a19.957,19.957,0,0,1,7.872,1.1,117.236,117.236,0,0,1,20.067,8.461c.778.4,1.538.825,2.308,1.236.315.168.726.426.959.071s-.189-.645-.446-.875C74.388,84.411,73,83.1,71.523,81.9c-2.084-1.691-3.853-3.7-5.767-5.561a68.682,68.682,0,0,1-9.514-11.406,22.293,22.293,0,0,1-3.385-6.679,11.676,11.676,0,0,1-.288-6.007c.634-2.36,2.792-3.4,5.528-2.606a18.907,18.907,0,0,1,4.813,2.2c5.17,3.223,9.376,7.534,13.856,11.559,4.512,4.054,8.7,8.415,12.962,12.717,2.551,2.58,5.005,5.257,7.508,7.9.324-.238.119-.438.021-.618-3.462-6.342-6.571-12.862-9.835-19.3a137.373,137.373,0,0,1-8.109-19.224c-1.576-4.8-3.046-9.734-2.972-14.9A9.255,9.255,0,0,1,77.57,25.3c1.331-2.268,4.914-2.567,6.842-.992a37.935,37.935,0,0,1,4.917,4.44c1.351,1.565,2.614,3.187,3.818,4.857a70.932,70.932,0,0,1,5.676,8.257c2.617,4.987,5.719,9.712,8.087,14.831,2.506,5.417,5.04,10.823,7.328,16.338.229.2.416.4.347.529.021-.116-.082-.439-.087-.757-.814-5.153-1.241-10.36-2.332-15.477a46.609,46.609,0,0,1-.787-6.742c-.229-3.572-.857-7.116-.794-10.7.049-2.793-.074-5.578-.155-8.367A103.785,103.785,0,0,1,110.9,18c.387-3.8,1.272-7.539,3.822-10.636a6.45,6.45,0,0,1,8.768-1.551,15.476,15.476,0,0,1,5.553,6.449,56.212,56.212,0,0,1,4.8,14.242,170.445,170.445,0,0,1,3.45,26.658c.279,4.729.469,9.458.5,14.21a10,10,0,0,0,.851-2.913c2.769-11.88,5.517-23.765,9.365-35.358a68.849,68.849,0,0,1,6.086-14.023,17.083,17.083,0,0,1,4.5-5.23,7.122,7.122,0,0,1,2.693-1.258,4.4,4.4,0,0,1,5.4,2.851,16.988,16.988,0,0,1,1.213,6.427c.28,8.719-1.2,17.242-2.974,25.725-.619,2.963-1.371,5.9-2.062,8.847-.1.14-.107.367-.027.423.1.07.117-.186.243-.225,5.14-10.33,10.281-20.663,17.294-29.906a26.842,26.842,0,0,1,7.937-7.538c3.671-2.078,7.656-1.426,10.011,1.647a10.383,10.383,0,0,1,1.951,6.177,38.944,38.944,0,0,1-2.327,13.252c-3.574,11.075-8.858,21.357-14.672,31.387-1.421,2.45-2.908,4.862-4.364,7.291-.023.143-.183.291-.026.418.033.028.214-.068.319-.125,5.233-4.978,10.5-9.925,16.159-14.42,4.761-3.778,9.652-7.368,15.3-9.743,2.732-1.149,5.555-2.031,8.592-1.583a5.937,5.937,0,0,1,5.133,7.467c-.714,3.365-2.554,6.168-4.556,8.873a95.413,95.413,0,0,1-10.2,11.252c-.17.167-.322.352-.483.529a2.222,2.222,0,0,1-.178.3.38.38,0,0,0,.422-.051,117.872,117.872,0,0,1,13.441-7.584A33.011,33.011,0,0,1,234,66.915a10.954,10.954,0,0,1,3.322.255c3.877.878,5.323,3.839,3.642,7.453a31.513,31.513,0,0,1-6.492,8.54c-6.953,7.1-14.79,13.149-22.807,18.974-6.582,4.783-13.364,9.268-20.427,13.537a5.238,5.238,0,0,0,2.616-.512,172.128,172.128,0,0,1,24.1-5.562c6.176-.881,12.38-1.412,18.545.143,3.412.861,6.464,2.376,8.55,5.332,3.288,4.658,3.5,10.412-2.2,14.431a34.539,34.539,0,0,1-12.9,5.172c-8.8,1.907-17.735,2.114-26.681,1.853-4.98-.145-9.95-.6-14.925-.916-.471-.276-1,.144-1.306-.038a1.2,1.2,0,0,1,.571.254c7.656,2.235,15.282,4.564,22.71,7.489,6.918,2.725,13.707,5.706,19.666,10.27a20.992,20.992,0,0,1,5.891,6.533,9.935,9.935,0,0,1,1.228,6.582c-.7,4.048-3.393,6.355-7.645,6.838-4.9.555-9.611-.412-14.3-1.592a129.4,129.4,0,0,1-17.958-6.21c-.552-.229-1.112-.438-1.667-.657-.247-.089-.532-.007-.641-.168.155.012.23.264.383.424,6.679,4.448,13.431,8.793,19.813,13.672,3.59,2.745,7.09,5.6,9.741,9.325,2.96,4.16,3.389,8.554.554,12.859a13.5,13.5,0,0,1-10.36,6.138c-4.946.481-9.325-1.327-13.566-3.589-.387-.206-.77-.422-1.153-.636a2.605,2.605,0,0,0-1.19-.414c1.03,1.264,2.086,2.508,3.085,3.8,2.379,3.065,4.68,6.182,5.9,9.937a9.031,9.031,0,0,1,.24,5.183,7.46,7.46,0,0,1-6.6,5.412c-4.113.365-7.547-1.373-10.836-3.5-5.448-3.52-10-8.068-14.329-12.833-9.375-10.315-17.387-21.659-24.961-33.326a.5.5,0,0,1-.264-.313.579.579,0,0,0,.033.545c3.107,7.172,6.23,14.334,8.715,21.758A94.646,94.646,0,0,1,165,234.813a73.717,73.717,0,0,1-.973,9.275,6.085,6.085,0,0,1-4.817,5.093,6.287,6.287,0,0,1-6.687-2.126,79.841,79.841,0,0,1-16.259-32.464c-.127-.5-.268-1-.413-1.492-.018-.064-.1-.11-.332-.361,0,2.681.1,5.169-.018,7.647-.417,9.085-.892,18.17-3.549,26.959a18.615,18.615,0,0,1-4.128,7.876,7.049,7.049,0,0,1-10.268.186c-2.477-2.318-3.745-5.334-4.772-8.457a73.321,73.321,0,0,1-2.923-14.874,170.322,170.322,0,0,1-.63-24.76,170.874,170.874,0,0,1,2.044-21.423c.057-.354.066-.716.1-1.074.063-.215.188-.438-.058-.618C111.3,184.191,111.2,184.3,111.144,184.356Z" fill="#bd9865"/>
    <path d="M67.2,131.058c-1.039-.062-2.1.236-3.119-.169.466-.175,1.029.172,1.445-.272l1.674.009A.252.252,0,0,1,67.2,131.058Z" fill="#e0ceb5"/>
    <path d="M187.6,135.831l-1-.239a2.145,2.145,0,0,1,1.731.023C188.081,135.673,187.789,135.584,187.6,135.831Z" fill="#f3ede5"/>
    <path d="M179.2,75.236a2.475,2.475,0,0,1-.911.872,1.534,1.534,0,0,1,.618-1.165Z" fill="#eee5d8"/>
    <path d="M195.264,165.34a2.982,2.982,0,0,1-1.224-.921,3.762,3.762,0,0,1,1.482.665Z" fill="#eadfcf"/>
    <path d="M209.388,77.855a2.176,2.176,0,0,1-1.339.707l1.095-.951Z" fill="#e7dac7"/>
    <path d="M47.776,156.465a2.121,2.121,0,0,1,1.51-.173c-.211.326-.547.3-.826.392C48.287,156.437,48,156.543,47.776,156.465Z" fill="#e4d4be"/>
    <path d="M151.367,177.6a1.816,1.816,0,0,1-.442-1.141,1.571,1.571,0,0,1,.673.909Z" fill="#e8dbc9"/>
    <path d="M114.5,72.8a1,1,0,0,1,.128,1.012c-.281-.2-.291-.516-.388-.784Z" fill="#dfcdb4"/>
    <path d="M111.144,184.356l.308-.8a1.219,1.219,0,0,1-.084,1.262Z" fill="#e6d8c5"/>
    <path d="M163.08,52.633l-.278.663a.569.569,0,0,1,.062-.861Z" fill="#dac6aa"/>
    <path d="M111.543,216.443a195.275,195.275,0,0,1,2.238-30.74,100.771,100.771,0,0,1,5.2-21.177c.331-.863.6-1.143,1.627-.82,2.743.866,5.772.919,7.663-1.812.38-.549.808-.406,1.254-.256.469.157.924.244.983.976.46,5.673,1.12,11.327,1.506,17.009.368,5.4.756,10.8.962,16.218.222,5.86.509,11.721.363,17.582-.227,9.116-.558,18.236-2.381,27.213-.8,3.941-1.737,7.85-3.825,11.371-2.321,3.915-6.424,4.109-9.078.417a27.606,27.606,0,0,1-4.039-9.89A85.736,85.736,0,0,1,112,228.85C111.665,224.512,111.5,220.173,111.543,216.443Z" fill="#fefefe"/>
    <path d="M214.018,204.963a23.231,23.231,0,0,1-11.611-3.438,78.592,78.592,0,0,1-17.574-13.678q-10.268-10.529-19.959-21.6-6.846-7.815-13.457-15.833a1.8,1.8,0,0,1-.311-2.077,4.349,4.349,0,0,0,.347-2.912c-.183-.655.086-.91.7-1.092,1.41-.416,2.8-.9,4.192-1.381a1.063,1.063,0,0,1,1.207.137c4.579,4.009,9.9,6.921,14.97,10.218q16.812,10.933,33.448,22.136c5.35,3.6,10.669,7.287,15.084,12.064,2.142,2.317,3.92,4.848,3.692,8.26a9.2,9.2,0,0,1-4.507,7.216A10.736,10.736,0,0,1,214.018,204.963Z" fill="#fefefe"/>
    <path d="M197.9,23.618a46.689,46.689,0,0,1-2.988,14.151,160.4,160.4,0,0,1-11.555,24.847c-3.544,6.366-7.423,12.517-11.489,18.555a72.117,72.117,0,0,1-9.9,11.923c-3.053,2.923-5.919,6.042-8.874,9.068-.92.942-.981.921-1.366-.313A5.554,5.554,0,0,0,146.4,97.5c-.752-.062-1.074-.349-1.012-1.118a2,2,0,0,0-.137-1.17c-.8-1.2-.128-2.022.622-2.824a40.534,40.534,0,0,0,8.58-14.61,161.3,161.3,0,0,1,7.11-16.54c2.687-5.608,5.426-11.19,8.307-16.7A137.148,137.148,0,0,1,182.293,24.2c2.109-2.743,4.28-5.458,7.493-7.046,3.637-1.8,7.1-.074,7.8,3.936A8.706,8.706,0,0,1,197.9,23.618Z" fill="#fefefe"/>
    <path d="M162.659,229.3A92.018,92.018,0,0,1,161.64,243.6a3.566,3.566,0,0,1-2.516,3.059,3.856,3.856,0,0,1-4.333-.776,52.824,52.824,0,0,1-6.425-8.59c-6.5-10.366-9.988-21.8-11.892-33.789a124.978,124.978,0,0,1-1.456-13.649c-.388-8.154-1.093-16.281-2.068-24.386a19.149,19.149,0,0,0-.227-2.257c-.2-.81.19-1.124,1.014-1.189,3.053-.243,4.33-1.429,4.948-4.5.048-.236.022-.5.359-.51a1.007,1.007,0,0,1,1.1.538c.241.545.447,1.106.668,1.66,2.36,5.915,4.928,11.742,7.516,17.561a245.673,245.673,0,0,1,9.686,24,91.115,91.115,0,0,1,4.454,22.192C162.607,225.083,162.617,227.192,162.659,229.3Z" fill="#fefefe"/>
    <path d="M135.107,66.44c.091,4.061,0,8.492-.326,12.909a45.733,45.733,0,0,1-1.383,9.194c-.193.675-.424.9-1.168.656a5.5,5.5,0,0,0-6.149,1.371c-.487.512-.838.517-1.4.042a6.344,6.344,0,0,0-4.36-1.669c-.618.018-.807-.222-.9-.809-.674-4.366-1.439-8.718-2.072-13.089-.905-6.262-1.783-12.53-2.556-18.81-.539-4.382-.924-8.786-1.3-13.186a145.968,145.968,0,0,1-.67-15.879c.109-4.691.3-9.4,1.652-13.954a10.392,10.392,0,0,1,2.484-4.692,3.973,3.973,0,0,1,5.4-.6,13.018,13.018,0,0,1,4.529,5.424c2.756,5.367,4.167,11.166,5.29,17.045a164.32,164.32,0,0,1,2.214,16.923C134.922,53.557,135.182,59.807,135.107,66.44Z" fill="#fefefe"/>
    <path d="M226.557,171.346a53.48,53.48,0,0,1-12.263-2.073c-11.717-3.344-22.706-8.429-33.537-13.922-7.413-3.759-13.987-8.806-20.975-13.213-1.533-.967-1.263-1.622-.845-2.833a21.937,21.937,0,0,1,1.136-3.383,1.71,1.71,0,0,1,1.255-.988,2.308,2.308,0,0,0,2.051-2.026c.138-.857.661-.567,1.167-.451,6.279,1.435,12.517,3.038,18.729,4.737a246.345,246.345,0,0,1,29.092,9.567c5.7,2.353,11.309,4.949,16.222,8.786a17.36,17.36,0,0,1,5.354,6.158,7.884,7.884,0,0,1,.528,5.57c-.67,2.537-2.672,3.318-4.891,3.772A26.536,26.536,0,0,1,226.557,171.346Z" fill="#fefefe"/>
    <path d="M84.44,128.947c-5.387.055-10.769-.19-16.136-.56-9.62-.663-19.2-1.709-28.537-4.29-5.432-1.5-10.727-3.372-15.228-6.926-2.622-2.071-4.591-4.567-4.519-8.144a4.889,4.889,0,0,1,4.166-5.208,37.625,37.625,0,0,1,10.827-.725,127.852,127.852,0,0,1,12.822,1.343,197.564,197.564,0,0,1,23.217,5.022c4.337,1.218,8.633,2.575,12.834,4.2,2.6,1,5.112,2.214,7.673,3.312.54.231.718.526.53,1.109a13.757,13.757,0,0,0-.2,7.548,7.123,7.123,0,0,1-.273,2.833c-.1.622-.645.482-1.062.484C88.515,128.952,86.478,128.947,84.44,128.947Z" fill="#fefefe"/>
    <path d="M199.584,224.594c-2.408-.114-5.171-1.573-7.8-3.343A77.044,77.044,0,0,1,178.293,209a220.95,220.95,0,0,1-17.352-21.976c-4.821-6.816-9.292-13.863-13.554-21.039-1.563-2.632-2.993-5.343-4.47-8.025-.287-.521-.435-1.091.261-1.421a3.939,3.939,0,0,0,2.191-4.039c-.013-.791.171-1.119.974-1.017a1.294,1.294,0,0,0,.711-.035c1.783-.952,2.679.134,3.664,1.41,3.885,5.034,7.985,9.894,12.078,14.762,6.677,7.942,13.849,15.408,21.265,22.654a194.349,194.349,0,0,1,17.007,18.7c2.09,2.655,4.042,5.426,4.82,8.819C206.83,221.9,204.652,224.628,199.584,224.594Z" fill="#fefefe"/>
    <path d="M239.162,71.689a7.745,7.745,0,0,1-1.488,4.106c-2.593,3.981-6.077,7.146-9.536,10.338-3.6,3.324-7.428,6.367-11.318,9.335A291.626,291.626,0,0,1,189.787,113.8c-3.619,2.168-7.261,4.3-11.068,6.121-4.355,2.086-9.053,3.251-13.559,4.934-.664.248-1.465.761-2,.572-.655-.231-.175-1.284-.5-1.917-.142-.279-.132-.663-.323-.888-1.228-1.445-1.106-3.107-.9-4.817a1.361,1.361,0,0,1,.53-1q9.807-7.785,19.613-15.572c8.89-7.027,17.883-13.917,27.351-20.156a101.065,101.065,0,0,1,17.92-9.923A24.252,24.252,0,0,1,234.59,69.3a7.486,7.486,0,0,1,3.148.545C238.766,70.252,239.292,70.928,239.162,71.689Z" fill="#fefefe"/>
    <path d="M208.617,134.192q-12.487-.2-24.9-1.6c-6.643-.758-13.25-1.751-19.858-2.749a2.23,2.23,0,0,1-1.373-3.224c.244-.379.626-.294.966-.339,2.405-.314,4.814-.607,7.218-.933a17.432,17.432,0,0,0,3.862-1.22,263.679,263.679,0,0,1,29.625-9.227,106.406,106.406,0,0,1,21.516-3.568,31.535,31.535,0,0,1,12.578,1.536,9.746,9.746,0,0,1,6.632,9.144c-.054,2.566-1.615,4.146-3.481,5.532-3.234,2.4-7,3.562-10.841,4.5a82.944,82.944,0,0,1-16.088,1.992C212.52,134.121,210.571,134.163,208.617,134.192Z" fill="#fefefe"/>
    <path d="M154.962,104.213c-.381-.078-1.013.363-1.245-.12s.429-.7.773-.892c4.715-2.608,8.091-6.657,11.46-10.693,1.533-1.836,3.049-3.678,4.745-5.368,5.286-5.269,10.486-10.626,15.991-15.669a144.641,144.641,0,0,1,17.775-14.442,32.537,32.537,0,0,1,10.281-4.912,13.154,13.154,0,0,1,3.431-.378c2.854.081,4.351,1.956,3.832,4.776a16.769,16.769,0,0,1-3.228,6.729c-4.176,5.778-9.274,10.709-14.46,15.565-4.16,3.894-8.457,7.627-12.8,11.306-6.653,5.631-13.441,11.1-20.26,16.525q-5.044,4.014-10.085,8.034c-1.21.97-1.57.982-2.778.031a.807.807,0,0,1-.174-1.163,13.486,13.486,0,0,0,1.233-4.947C159.791,105.782,158.05,104.081,154.962,104.213Z" fill="#fefefe"/>
    <path d="M42.459,154.342c-7.964-.033-14.372-.842-20.45-3.389-2.4-1.007-4.886-1.974-6.345-4.408A3.394,3.394,0,0,1,16.12,142c2.324-2.445,5.4-3.463,8.486-4.389a103.772,103.772,0,0,1,21.586-3.7c3.337-.272,6.683-.315,10.017-.524,2.958-.186,5.888.107,8.828.057,4.138-.07,8.258-.466,12.378-.849,3.008-.28,6.022-.506,9.032-.775,1.385-.123,2.768-.277,4.148-.443.508-.061.8,0,.907.607a4.076,4.076,0,0,0,1.039,2.244c.636.647.4,1.155-.245,1.553-3.016,1.847-6.011,3.732-9.075,5.5C79.01,143.7,74.65,145.847,70.3,148a63.656,63.656,0,0,1-17.859,5.354A60.124,60.124,0,0,1,42.459,154.342Z" fill="#fefefe"/>
    <path d="M165.491,20.54a88.127,88.127,0,0,1-1.743,16.725,195.508,195.508,0,0,1-8.32,31.106c-2.562,7.166-5.43,14.2-9.7,20.559-.6.891-1.3,1.71-1.934,2.578a1.256,1.256,0,0,1-1.591.451,9.928,9.928,0,0,0-5.541-.1c-1.213.237-1.632-.156-1.364-1.4q1.059-4.9,2.177-9.786c2.43-10.672,4.738-21.372,7.445-31.98a199.126,199.126,0,0,1,8.167-26.2,35.114,35.114,0,0,1,4.76-8.655,7.413,7.413,0,0,1,3.638-2.786,2.113,2.113,0,0,1,2.978,1.371,14.112,14.112,0,0,1,1.016,4.884C165.549,18.38,165.491,19.462,165.491,20.54Z" fill="#fefefe"/>
    <path d="M54.729,217.451a21.809,21.809,0,0,1,2.29-8.889c3.291-7.379,7.846-13.991,12.549-20.513,4.749-6.584,9.893-12.854,15.092-19.078,2.755-3.3,5.631-6.5,8.473-9.719q3.04-3.449,6.141-6.845c.981-1.074,1.147-1.033,1.924.145,1.8,2.723,3.466,3.3,6.469,2.2.306-.111.648-.308.88-.032.3.355.1.779-.134,1.1-.635.865-1.319,1.694-1.959,2.554a209.645,209.645,0,0,0-13.88,21.265c-4.5,7.876-8.467,16.044-13.217,23.778-3.167,5.157-6.379,10.289-10.854,14.465a16.35,16.35,0,0,1-10.523,4.509,3.292,3.292,0,0,1-2.729-2.2,5.86,5.86,0,0,1-.413-1.244A13.331,13.331,0,0,1,54.729,217.451Z" fill="#fefefe"/>
    <path d="M77.777,223.562A45.971,45.971,0,0,1,80.422,211,169.843,169.843,0,0,1,92.755,183.75c4.672-8.538,10.267-16.466,15.823-24.426.392-.562.659-1.052,1.239-.137,1.86,2.937,3.466,3.343,6.743,1.774,1.029-.493,1.415-.334,1.445.6a.687.687,0,0,1-.042.347c-2.251,3.94-3.709,8.231-5.4,12.41-4.44,10.977-8.677,22.036-13.138,33a64.3,64.3,0,0,1-7.753,14.63c-2.692,3.587-5.981,6.236-10.632,6.825a2.14,2.14,0,0,1-2.529-1.252A8.5,8.5,0,0,1,77.777,223.562Z" fill="#fefefe"/>
    <path d="M81.184,25.524A5.527,5.527,0,0,1,83.54,26.59a30.572,30.572,0,0,1,6.436,6.867,154.962,154.962,0,0,1,12.492,20.067A205.015,205.015,0,0,1,114.45,79.68c1.043,2.843,1.976,5.724,2.775,8.65a1.777,1.777,0,0,1-.785,2.315,8.411,8.411,0,0,0-2.974,3.674c-.387.824-.824,1.015-1.682.621a5.836,5.836,0,0,0-4.505-.521c-.679.237-1.063-.155-1.422-.738q-4.2-6.819-7.975-13.885c-4.348-8.114-8.407-16.37-11.966-24.863a109.68,109.68,0,0,1-6.642-19.781,19.9,19.9,0,0,1-.366-7.25C79.14,26.447,80,25.541,81.184,25.524Z" fill="#fefefe"/>
    <path d="M46.578,204.968c-2.479.243-3.423-1.916-2.982-4.587.682-4.128,2.623-7.746,4.773-11.255a132.077,132.077,0,0,1,13.682-18.051,132.94,132.94,0,0,1,9.448-9.832c2.622-2.429,5.518-4.561,8.272-6.849a133.393,133.393,0,0,1,13.077-9.8,2,2,0,0,1,2.5-.175,2.648,2.648,0,0,0,2.16.364c.937-.238,1.3.246,1.33,1.115a2.162,2.162,0,0,0,.074.829c.913,1.883-.09,3.022-1.371,4.284a251.5,251.5,0,0,0-24.2,27.674,209.414,209.414,0,0,1-14.608,17.654,46.51,46.51,0,0,1-8.508,7.446A5.84,5.84,0,0,1,46.578,204.968Z" fill="#fefefe"/>
    <path d="M46.807,78.076a36.393,36.393,0,0,1,11.507,2.887c9.505,3.727,18.4,8.662,27.19,13.8,4.015,2.344,7.97,4.786,11.944,7.2.42.254.919.459.525,1.079-1.8,2.823-2.009,5.984-1.966,9.2a2.848,2.848,0,0,1-3.859,2.548c-7.708-3.242-15.293-6.748-22.689-10.648A132.084,132.084,0,0,1,50.124,92.17c-2.8-2.16-5.523-4.429-7.362-7.565C40.747,81.167,41.859,77.866,46.807,78.076Z" fill="#fefefe"/>
    <path d="M31.441,179.975A14.451,14.451,0,0,1,27.2,179.4a4.148,4.148,0,0,1-3.024-5.172c.635-3.068,2.6-5.279,4.879-7.173a28.4,28.4,0,0,1,11.891-5.861A91.138,91.138,0,0,0,50.7,158.5c5.519-1.923,10.888-4.221,16.26-6.519,3.726-1.594,7.563-2.937,11.169-4.8a118.262,118.262,0,0,0,15.7-9.493c.261-.192.531-.5.829-.282.272.2.138.61.071.906-.2.888-.5,1.757-.665,2.651-.093.494-.428.641-.775.814a70.389,70.389,0,0,0-15.956,11.217,159.572,159.572,0,0,1-21.454,16.64,83.116,83.116,0,0,1-17.439,9.033A20.712,20.712,0,0,1,31.441,179.975Z" fill="#fefefe"/>
    <path d="M54.534,54.86c.035-3.123.923-3.746,3.572-2.783,2.923,1.064,5.321,2.991,7.723,4.879,4.008,3.15,7.719,6.633,11.426,10.131,3.252,3.068,6.414,6.222,9.529,9.422C90.9,80.732,94.9,85.058,98.936,89.357c1.688,1.8,3.32,3.65,5,5.457.572.616.905,1.158.24,1.955a3.5,3.5,0,0,0-.776,1.6,2.441,2.441,0,0,1-2.422,2.289,2.641,2.641,0,0,1-2.1-.34A248.751,248.751,0,0,1,77.9,84.62,136.126,136.126,0,0,1,66.088,73.661c-3.964-4.245-7.809-8.6-10.243-13.982A14.485,14.485,0,0,1,54.534,54.86Z" fill="#fefefe"/>
    <path d="M67.2,131.058v-.433c.292.058.807-.229.8.276C67.989,131.2,67.483,131.044,67.2,131.058Z" fill="#ccb188"/>
  </g>
</svg>
