<svg width="20" height="20" viewBox="0 0 20 20" fill="none" xmlns="http://www.w3.org/2000/svg">
<path d="M4.82857 6.5H0V13H4.45714L9.84286 18.3857V11.5143L14.1143 15.9714C13.9286 16.1571 12.5667 16.9 11.8857 17.0857V19.1286C12.9257 19.1286 15.0429 18.2 15.9714 17.4571L18.0143 19.5L19.5 18.0143L1.48571 0L0 1.48571L4.82857 6.5Z" fill="white"/>
<path d="M9.84286 5.2L7.8 3.15714L9.84286 1.11429V5.2Z" fill="white"/>
<path d="M11.8857 7.42857V5.38571C14.3 5.75714 14.7952 8.60476 14.6714 9.84286L11.8857 7.42857Z" fill="white"/>
<path d="M16.3429 5.94286C15.1543 3.86286 12.8762 2.72381 11.8857 2.41429V0C14.3 0.557143 15.9714 1.67143 16.7143 2.41429C17.4571 3.15714 18.5714 4.45714 19.3143 7.42857C19.9086 9.80571 19.2524 12.7524 18.7571 13.9286L16.9 12.4429C17.1476 11.1429 17.5314 8.02286 16.3429 5.94286Z" fill="white"/>
</svg>
